<?xml version="1.0" encoding="UTF-8"?>
<svg version="1.1" xmlns="http://www.w3.org/2000/svg" width="426" height="100">
<path d="M0 0 C0 11.88 0 23.76 0 36 C-5.01822701 37.0036454 -6.46900722 36.79132273 -11 35 C-11.495 30.05 -11.495 30.05 -12 25 C-12.24234375 25.69867188 -12.4846875 26.39734375 -12.734375 27.1171875 C-13.06953125 28.02726562 -13.4046875 28.93734375 -13.75 29.875 C-14.07484375 30.77992187 -14.3996875 31.68484375 -14.734375 32.6171875 C-16.18862389 35.35512523 -17.09870131 36.02915924 -20 37 C-22.5625 36.9375 -22.5625 36.9375 -25 36 C-27.86488143 32.39237153 -28.87369779 28.41857021 -30 24 C-30.33 27.96 -30.66 31.92 -31 36 C-37.8359375 36.9765625 -37.8359375 36.9765625 -40 37 C-42 35 -42 35 -42.24291992 33.01977539 C-42.23881104 32.22047607 -42.23470215 31.42117676 -42.23046875 30.59765625 C-42.22942139 29.71190918 -42.22837402 28.82616211 -42.22729492 27.91357422 C-42.2141626 26.97271973 -42.20103027 26.03186523 -42.1875 25.0625 C-42.17887939 24.11133301 -42.17025879 23.16016602 -42.16137695 22.18017578 C-41.93312744 4.26029102 -41.93312744 4.26029102 -39.71875 1.26953125 C-36.73246076 -0.93625058 -33.63812301 -0.7017932 -30 -1 C-25.60991948 5.96295558 -23.18782108 13.0920657 -21 21 C-20.71125 19.948125 -20.4225 18.89625 -20.125 17.8125 C-19.22245789 14.75388507 -18.19253246 11.94625666 -17 9 C-15.97261282 6.00893683 -14.98238918 3.0061109 -14 0 C-12.42074025 -0.39180108 -10.83631206 -0.76280736 -9.25 -1.125 C-8.36828125 -1.33382813 -7.4865625 -1.54265625 -6.578125 -1.7578125 C-4 -2 -4 -2 0 0 Z " fill="#65577C" transform="translate(53,10)"/>
<path d="M0 0 C1.9375 0.75 1.9375 0.75 4 2 C4.75 4.125 4.75 4.125 5 6 C5.33 5.67 5.66 5.34 6 5 C8.80027165 4.92630864 11.57557273 4.90776752 14.375 4.9375 C15.15617187 4.94201172 15.93734375 4.94652344 16.7421875 4.95117188 C18.82815104 4.96367337 20.91408052 4.98155867 23 5 C23.99 5 24.98 5 26 5 C27.93753544 5 29.87511591 5.01093895 31.8125 5.03515625 C33.3903125 5.04869141 33.3903125 5.04869141 35 5.0625 C36.051875 5.07410156 37.10375 5.08570312 38.1875 5.09765625 C41.08176557 5.1300319 41.08176557 5.1300319 44 4 C46 6 46 6 46 8 C45.01 8 44.02 8 43 8 C42.34 10.97 41.68 13.94 41 17 C40.01 17 39.02 17 38 17 C37.05125 17.350625 36.1025 17.70125 35.125 18.0625 C31.71409437 19.08577169 30.38900877 18.74392875 27 18 C24.65834501 18.26871451 22.32115711 18.59038404 20 19 C19.505 20.485 19.505 20.485 19 22 C17.68 22 16.36 22 15 22 C14.67 20.35 14.34 18.7 14 17 C13.01 17.495 13.01 17.495 12 18 C9.52171775 18.8851008 8.05925662 19.01011698 5.4375 18.5625 C1.4327259 17.90717333 -2.36609394 17.97178922 -6.4140625 18.0625 C-8.82139303 18.00431678 -10.73912444 17.81841649 -13 17 C-13.495 16.01 -13.495 16.01 -14 15 C-14.66 15.66 -15.32 16.32 -16 17 C-16.99 17.33 -17.98 17.66 -19 18 C-21.1875 16.5625 -21.1875 16.5625 -23 15 C-23.680625 15.515625 -24.36125 16.03125 -25.0625 16.5625 C-28.80118832 18.39207088 -31.00443413 17.86178872 -35 17 C-35.33 16.01 -35.66 15.02 -36 14 C-36.556875 14.9590625 -36.556875 14.9590625 -37.125 15.9375 C-39.61626359 18.67788995 -41.36704438 18.77294027 -45 19 C-45.99 18.67 -46.98 18.34 -48 18 C-48 17.34 -48 16.68 -48 16 C-48.66 15.67 -49.32 15.34 -50 15 C-49.94008594 13.04081032 -49.85132862 11.08248471 -49.75 9.125 C-49.68039062 7.48917969 -49.68039062 7.48917969 -49.609375 5.8203125 C-49 3 -49 3 -47.1875 1.59375 C-43.97005141 0.72044253 -41.23136648 1.37858337 -38 2 C-38 2.66 -38 3.32 -38 4 C-35.72926348 4.16798051 -33.45840707 4.33434113 -31.1875 4.5 C-29.92292969 4.5928125 -28.65835937 4.685625 -27.35546875 4.78125 C-25.24021483 4.91914781 -23.11974408 5 -21 5 C-20.01 6.485 -20.01 6.485 -19 8 C-19 7.34 -19 6.68 -19 6 C-18.030625 5.87625 -17.06125 5.7525 -16.0625 5.625 C-13.11092036 5.1921818 -10.17737782 4.69993509 -7.25 4.125 C-6.14398438 3.91230469 -6.14398438 3.91230469 -5.015625 3.6953125 C-2.69073727 2.89331635 -1.59154994 1.84337746 0 0 Z M-45 4 C-44 6 -44 6 -44 6 Z M-43 5 C-43.66 6.32 -44.32 7.64 -45 9 C-43.70532323 11.05990478 -43.70532323 11.05990478 -42 13 C-41.01 13 -40.02 13 -39 13 C-39 10.69 -39 8.38 -39 6 C-40.32 5.67 -41.64 5.34 -43 5 Z M-4 5 C-4 5.66 -4 6.32 -4 7 C-3.34 6.67 -2.68 6.34 -2 6 C-2.66 5.67 -3.32 5.34 -4 5 Z M-35 6 C-34 8 -34 8 -34 8 Z M2 7 C2 10 2 10 2 10 Z M-39 10 C-38 12 -38 12 -38 12 Z M-2 10 C-2.33 10.66 -2.66 11.32 -3 12 C-2.34 12 -1.68 12 -1 12 C-1.33 11.34 -1.66 10.68 -2 10 Z M7 10 C6.67 10.99 6.34 11.98 6 13 C6.99 13.33 7.98 13.66 9 14 C8.34 12.68 7.68 11.36 7 10 Z M-10 12 C-9 14 -9 14 -9 14 Z M14 12 C15 14 15 14 15 14 Z M19 12 C20 14 20 14 20 14 Z M-21 14 C-20 16 -20 16 -20 16 Z M-2 14 C-2.33 14.66 -2.66 15.32 -3 16 C-2.34 16 -1.68 16 -1 16 C-1.33 15.34 -1.66 14.68 -2 14 Z M24 15 C24.66 15.66 25.32 16.32 26 17 C26 16.34 26 15.68 26 15 C25.34 15 24.68 15 24 15 Z " fill="#4C4851" transform="translate(346,67)"/>
<path d="M0 0 C2.64 0 5.28 0 8 0 C9.60055363 4.20145328 10.10413707 7.52210599 10 12 C11.12534105 13.35618499 11.12534105 13.35618499 14.0625 13.0625 C15.031875 13.041875 16.00125 13.02125 17 13 C16.97679688 12.22914062 16.95359375 11.45828125 16.9296875 10.6640625 C16.91164063 9.66117188 16.89359375 8.65828125 16.875 7.625 C16.85179688 6.62726562 16.82859375 5.62953125 16.8046875 4.6015625 C17 2 17 2 19 0 C21.1640625 -0.1953125 21.1640625 -0.1953125 23.625 -0.125 C24.85089844 -0.09792969 24.85089844 -0.09792969 26.1015625 -0.0703125 C27.04128906 -0.03550781 27.04128906 -0.03550781 28 0 C28.77800681 4.79995203 29.11851665 9.38562064 29.09765625 14.24609375 C29.0962413 14.90207047 29.09482635 15.55804718 29.09336853 16.23390198 C29.08783031 18.30181702 29.07529002 20.36961842 29.0625 22.4375 C29.05747699 23.85090988 29.0529155 25.26432148 29.04882812 26.67773438 C29.03788126 30.11852568 29.02066038 33.55925172 29 37 C21.34821429 38.20535714 21.34821429 38.20535714 18 37 C17.36605303 32.95858806 16.87595548 29.0934693 17 25 C14.69 25 12.38 25 10 25 C10.02320312 25.60328125 10.04640625 26.2065625 10.0703125 26.828125 C10.09738281 28.02695312 10.09738281 28.02695312 10.125 29.25 C10.14820312 30.03890625 10.17140625 30.8278125 10.1953125 31.640625 C9.9828378 34.20731941 9.28654105 35.7916067 8 38 C1.9453125 38.1953125 1.9453125 38.1953125 0 38 C-2.85173062 35.14826938 -2.25846583 33.18662131 -2.265625 29.19921875 C-2.26753845 28.52582962 -2.2694519 27.85244049 -2.27142334 27.15864563 C-2.27278517 25.73214342 -2.26908886 24.30562883 -2.26074219 22.87915039 C-2.25009193 20.70625536 -2.26061094 18.53419652 -2.2734375 16.36132812 C-2.27211492 14.97395652 -2.26955051 13.58658543 -2.265625 12.19921875 C-2.26336914 10.93940186 -2.26111328 9.67958496 -2.25878906 8.3815918 C-2.01097053 5.14335165 -1.39478722 2.90765349 0 0 Z " fill="#65587B" transform="translate(94,9)"/>
<path d="M0 0 C0.61875 0.515625 1.2375 1.03125 1.875 1.5625 C1.875 2.2225 1.875 2.8825 1.875 3.5625 C3.36 4.0575 3.36 4.0575 4.875 4.5625 C7.92371576 9.25283194 9.02996246 14.02259204 8.875 19.5625 C7.26691345 24.83345035 4.85800324 28.75267081 0.875 32.5625 C-4.88972553 35.59366543 -9.85484847 36.10434054 -16.125 34.5625 C-19.375 32.6875 -19.375 32.6875 -22.125 30.5625 C-23.2078125 29.94375 -23.2078125 29.94375 -24.3125 29.3125 C-27.17362024 26.55003908 -28.35527731 23.37904168 -29.125 19.5625 C-29.18481864 14.57512102 -28.83628095 9.85030853 -26.125 5.5625 C-24.1015625 3.67578125 -24.1015625 3.67578125 -21.75 1.875 C-20.97914063 1.27300781 -20.20828125 0.67101562 -19.4140625 0.05078125 C-13.54647804 -3.76414994 -6.15842979 -2.8328777 0 0 Z M-16.125 11.5625 C-17.56744751 12.7849093 -17.56744751 12.7849093 -17.375 16.4375 C-17.33512013 19.6662902 -17.33512013 19.6662902 -15.875 22.5 C-13.83406606 23.73913846 -12.51716557 24.35142657 -10.125 24.5625 C-7.22642688 23.78483404 -5.48042413 22.88238172 -3.25 20.875 C-1.63256178 17.55026587 -2.37745431 15.09635237 -3.125 11.5625 C-3.785 11.5625 -4.445 11.5625 -5.125 11.5625 C-5.125 10.9025 -5.125 10.2425 -5.125 9.5625 C-9.95559321 8.32676685 -12.1078822 8.57835535 -16.125 11.5625 Z " fill="#64577A" transform="translate(227.125,11.4375)"/>
<path d="M0 0 C0.8146875 0.00257812 1.629375 0.00515625 2.46875 0.0078125 C3.2834375 0.00523438 4.098125 0.00265625 4.9375 0 C6.96875 0.1328125 6.96875 0.1328125 7.96875 1.1328125 C8.04119053 3.15245449 8.05252188 5.17448374 8.03125 7.1953125 C8.02222656 8.30003906 8.01320313 9.40476562 8.00390625 10.54296875 C7.99230469 11.39761719 7.98070312 12.25226562 7.96875 13.1328125 C10.60875 13.1328125 13.24875 13.1328125 15.96875 13.1328125 C15.95714844 12.27816406 15.94554687 11.42351563 15.93359375 10.54296875 C15.92457031 9.43824219 15.91554688 8.33351563 15.90625 7.1953125 C15.89464844 6.09316406 15.88304687 4.99101562 15.87109375 3.85546875 C15.96875 1.1328125 15.96875 1.1328125 16.96875 0.1328125 C24.49113806 -0.10599347 24.49113806 -0.10599347 26.96875 1.1328125 C26.96875 12.6828125 26.96875 24.2328125 26.96875 36.1328125 C20.96875 38.1328125 20.96875 38.1328125 15.96875 36.1328125 C15.63875 32.5028125 15.30875 28.8728125 14.96875 25.1328125 C12.98875 25.1328125 11.00875 25.1328125 8.96875 25.1328125 C8.94296875 25.90367188 8.9171875 26.67453125 8.890625 27.46875 C8.83390625 28.47164062 8.7771875 29.47453125 8.71875 30.5078125 C8.64914062 32.00441406 8.64914062 32.00441406 8.578125 33.53125 C7.96875 36.1328125 7.96875 36.1328125 6.12109375 37.50390625 C3.15180443 38.37152073 0.93945771 37.8589855 -2.03125 37.1328125 C-3.79197584 35.37208666 -3.15959784 33.0538496 -3.17019653 30.7088623 C-3.1681723 29.95157837 -3.16614807 29.19429443 -3.1640625 28.4140625 C-3.16501923 27.64098755 -3.16597595 26.8679126 -3.16696167 26.07141113 C-3.16764341 24.43383706 -3.16578957 22.79626031 -3.16162109 21.15869141 C-3.15627271 18.64349329 -3.16156626 16.12847377 -3.16796875 13.61328125 C-3.16730797 12.02604127 -3.1660268 10.4388014 -3.1640625 8.8515625 C-3.16608673 8.09427856 -3.16811096 7.33699463 -3.17019653 6.5567627 C-3.14149014 0.20540512 -3.14149014 0.20540512 0 0 Z " fill="#B4B1BE" transform="translate(259.03125,8.8671875)"/>
<path d="M0 0 C4.84186604 1.1173537 7.82807648 2.09609413 11 6 C11.33 6.66 11.66 7.32 12 8 C12.37125 7.505 12.7425 7.01 13.125 6.5 C15.78415486 4.37267611 17.67877525 4.72323127 21 5 C21.99 5.33 22.98 5.66 24 6 C27.02615627 5.689625 28.65452635 5.27219136 31.0625 3.375 C33 2 33 2 35.1875 2.125 C35.785625 2.41375 36.38375 2.7025 37 3 C37.495 4.485 37.495 4.485 38 6 C38.66 5.34 39.32 4.68 40 4 C41.6748905 4.28918973 43.34037069 4.63323109 45 5 C47.41628486 5.04295618 49.83367173 5.04044064 52.25 5 C54.49969015 4.96266074 56.75049325 4.95288991 59 5 C59.495 5.495 59.495 5.495 60 6 C62.27564709 5.81867354 64.51398288 5.48008063 66.7734375 5.15625 C69 5 69 5 72 6 C74.3406065 5.72230092 76.67624308 5.39460023 79 5 C79.495 6.485 79.495 6.485 80 8 C78.73779907 10.04563599 77.39712274 12.04402816 76 14 C75.30570621 15.3191582 74.62469505 16.64649406 74 18 C72.35 17.34 70.7 16.68 69 16 C68.67 16.66 68.34 17.32 68 18 C65.60652973 18 63.37143984 17.88549907 61 17.625 C60.319375 17.55539063 59.63875 17.48578125 58.9375 17.4140625 C57 17 57 17 54 15 C53.505 13.515 53.505 13.515 53 12 C52.9071875 13.175625 52.9071875 13.175625 52.8125 14.375 C52.544375 15.24125 52.27625 16.1075 52 17 C49.625 18.125 49.625 18.125 47 19 C46.525625 19.556875 46.05125 20.11375 45.5625 20.6875 C45.046875 21.120625 44.53125 21.55375 44 22 C40.8125 21.6875 40.8125 21.6875 38 21 C38 20.34 38 19.68 38 19 C37.21625 18.855625 36.4325 18.71125 35.625 18.5625 C33 18 33 18 31 17 C30.67 17.66 30.34 18.32 30 19 C27.56013011 18.52558085 25.1856158 18.05833639 22.8125 17.3125 C22.214375 17.209375 21.61625 17.10625 21 17 C20.34 17.66 19.68 18.32 19 19 C13.25 16.25 13.25 16.25 11 14 C10.60167969 14.48082031 10.20335938 14.96164063 9.79296875 15.45703125 C7.56549753 17.37391825 6.21165331 17.47741643 3.3125 17.6875 C2.10013672 17.78611328 2.10013672 17.78611328 0.86328125 17.88671875 C-0.05904297 17.94279297 -0.05904297 17.94279297 -1 18 C-1.12375 17.360625 -1.2475 16.72125 -1.375 16.0625 C-1.58125 15.381875 -1.7875 14.70125 -2 14 C-2.66 13.67 -3.32 13.34 -4 13 C-3.34 13 -2.68 13 -2 13 C-2.10699219 12.31292969 -2.21398437 11.62585938 -2.32421875 10.91796875 C-2.44410156 10.01691406 -2.56398438 9.11585937 -2.6875 8.1875 C-2.81511719 7.29417969 -2.94273438 6.40085937 -3.07421875 5.48046875 C-3 3 -3 3 -1.51953125 1.17578125 C-1.01808594 0.78777344 -0.51664062 0.39976563 0 0 Z M1 5 C1 8.3 1 11.6 1 15 C1.66 14.67 2.32 14.34 3 14 C4.66194453 13.64386903 6.328451 13.30791692 8 13 C8.20086443 9.28400809 8.1519437 8.22791555 6 5 C4.35 5 2.7 5 1 5 Z M48 7 C47.67 7.66 47.34 8.32 47 9 C47.99 10.485 47.99 10.485 49 12 C49.33 10.68 49.66 9.36 50 8 C49.34 7.67 48.68 7.34 48 7 Z M53 8 C52.67 9.32 52.34 10.64 52 12 C53.65 11.34 55.3 10.68 57 10 C56.34 9.34 55.68 8.68 55 8 C54.34 8 53.68 8 53 8 Z M41 9 C41 9.99 41 10.98 41 12 C41.66 11.67 42.32 11.34 43 11 C42.34 10.34 41.68 9.68 41 9 Z M39 11 C39.33 11.99 39.66 12.98 40 14 C40 13.01 40 12.02 40 11 C39.67 11 39.34 11 39 11 Z M66 12 C66 12.66 66 13.32 66 14 C66.66 13.67 67.32 13.34 68 13 C67.34 12.67 66.68 12.34 66 12 Z M17 12 C16.34 12.66 15.68 13.32 15 14 C15.99 14 16.98 14 18 14 C17.67 13.34 17.34 12.68 17 12 Z M21 13 C21.66 13.66 22.32 14.32 23 15 C23 14.34 23 13.68 23 13 C22.34 13 21.68 13 21 13 Z M48 14 C49 16 49 16 49 16 Z M35 16 C36 18 36 18 36 18 Z " fill="#55525C" transform="translate(104,67)"/>
<path d="M0 0 C4.44099432 3.57537678 7.44713386 7.27378707 8.21875 13.08984375 C8.51547045 19.21897555 7.57129709 22.81549601 3.90625 27.734375 C-0.27392254 31.93637611 -3.89361938 33.87132767 -9.84375 34.046875 C-15.13344899 33.98518755 -17.84960513 32.87504221 -22.09375 29.734375 C-26.90952396 24.52813288 -28.62170227 20.36484901 -28.4765625 13.3359375 C-27.66840182 7.84374348 -24.53446993 4.13815339 -20.65625 0.359375 C-13.84072567 -3.96266482 -7.03073206 -4.24992013 0 0 Z M-17.09375 11.734375 C-18.01693632 14.89958524 -18.39198742 16.83966274 -17.34375 19.984375 C-16.04270128 22.02454665 -16.04270128 22.02454665 -13.09375 23.734375 C-9.30840976 23.59672626 -6.82039775 23.18852984 -3.59375 21.171875 C-1.66463271 18.03705941 -1.76185135 16.13315861 -2.41796875 12.57421875 C-3.0225813 10.4804352 -3.0225813 10.4804352 -5.34375 8.734375 C-10.70703857 6.78408825 -13.58286692 6.9696051 -17.09375 11.734375 Z " fill="#B0ACB9" transform="translate(318.09375,12.265625)"/>
<path d="M0 0 C6.69717158 -1.05094077 14.14773143 -0.65766786 20 3 C24.8605924 6.90583318 27.02640972 11.31730995 27.94921875 17.44140625 C28.05877006 22.96110679 26.08330603 27.28165251 23.1875 31.875 C18.67439175 36.2591623 13.97219159 37.43926619 7.8125 37.875 C6.60207031 37.97554687 5.39164062 38.07609375 4.14453125 38.1796875 C1 38 1 38 -0.67382812 36.93798828 C-2.71039101 33.96187706 -2.37142799 31.38121329 -2.36328125 27.8125 C-2.36402901 26.76412964 -2.36402901 26.76412964 -2.36479187 25.69458008 C-2.36245392 24.21855828 -2.35274165 22.74253231 -2.33618164 21.26660156 C-2.31258464 19.00810067 -2.3156227 16.75078038 -2.32226562 14.4921875 C-2.27922768 3.41884152 -2.27922768 3.41884152 0 0 Z M9 11 C9 16.28 9 21.56 9 27 C14.02202934 26.51089768 14.02202934 26.51089768 16.4375 23.3125 C18.32400804 20.11669138 18.32400804 20.11669138 17.5 16.8125 C15.94045703 13.88835693 14.88879846 12.57570825 12 11 C11.01 11 10.02 11 9 11 Z " fill="#B4B0BF" transform="translate(332,9)"/>
<path d="M0 0 C0.70125 -0.02578125 1.4025 -0.0515625 2.125 -0.078125 C2.74375 0.03015625 3.3625 0.1384375 4 0.25 C6.17422636 3.51133955 6.22717664 4.3174461 6.125 8.06640625 C6.10179688 9.45956055 6.10179688 9.45956055 6.078125 10.88085938 C6.05234375 11.84830078 6.0265625 12.81574219 6 13.8125 C5.94909765 15.73024586 5.90699146 17.64825172 5.875 19.56640625 C5.84019531 20.84173218 5.84019531 20.84173218 5.8046875 22.14282227 C5.79410984 24.46999475 5.79410984 24.46999475 8 26.25 C9.65 25.92 11.3 25.59 13 25.25 C13.33 17.33 13.66 9.41 14 1.25 C20.75438596 -0.10087719 20.75438596 -0.10087719 24 0.25 C26.96977571 4.70466357 26.12006904 8.7195716 25.875 13.9375 C25.85179688 14.90623047 25.82859375 15.87496094 25.8046875 16.87304688 C25.47876621 24.40488418 23.86851631 29.95964305 18.875 35.6875 C14.6652469 37.97540929 10.77115093 38.56213137 6 38.25 C2.99047579 37.31296865 1.55469983 36.2724707 -1 34.25 C-2.3125 31.5625 -2.3125 31.5625 -3 29.25 C-3.66 28.92 -4.32 28.59 -5 28.25 C-6.12342762 25.12124299 -6.11598221 22.12679762 -6.09765625 18.828125 C-6.09443359 17.80332031 -6.09121094 16.77851563 -6.08789062 15.72265625 C-6.07951172 14.65917969 -6.07113281 13.59570312 -6.0625 12.5 C-6.05798828 11.42105469 -6.05347656 10.34210937 -6.04882812 9.23046875 C-6.03705727 6.57025617 -6.02061399 3.91015635 -6 1.25 C-3.78704384 0.14352192 -2.45327301 0.05411632 0 0 Z " fill="#66587F" transform="translate(63,8.75)"/>
<path d="M0 0 C0.78503906 0.00515625 1.57007813 0.0103125 2.37890625 0.015625 C3.55259766 0.00789062 3.55259766 0.00789062 4.75 0 C6.94140625 0.265625 6.94140625 0.265625 9.94140625 2.265625 C10.91141309 4.6380536 11.71575274 6.91234949 12.45703125 9.35546875 C12.67711853 10.05579727 12.89720581 10.75612579 13.1239624 11.47767639 C13.58626753 12.95801515 14.04319254 14.4400433 14.49511719 15.92358398 C15.18906384 18.19545631 15.90371417 20.46004179 16.62109375 22.72460938 C17.06765966 24.16367414 17.51301342 25.60311574 17.95703125 27.04296875 C18.17151917 27.72117172 18.38600708 28.39937469 18.60699463 29.09812927 C20.05662732 33.91996178 20.05662732 33.91996178 18.94140625 37.265625 C12.7890625 37.36328125 12.7890625 37.36328125 10.94140625 37.265625 C10.44640625 36.770625 10.44640625 36.770625 9.94140625 36.265625 C7.86096912 36.13927077 5.77564413 36.08980795 3.69140625 36.078125 C2.551875 36.06394531 1.41234375 36.04976562 0.23828125 36.03515625 C-2.99604958 36.26125284 -5.11284476 37.0046198 -8.05859375 38.265625 C-10.87109375 37.890625 -10.87109375 37.890625 -13.05859375 37.265625 C-12.44343416 29.67550207 -10.30658349 22.66269704 -8.12109375 15.390625 C-7.76080078 14.15570313 -7.40050781 12.92078125 -7.02929688 11.6484375 C-6.67931641 10.4728125 -6.32933594 9.2971875 -5.96875 8.0859375 C-5.65043213 7.01617676 -5.33211426 5.94641602 -5.00415039 4.84423828 C-3.91882245 1.8844568 -3.25314155 0.4197602 0 0 Z M2.94140625 16.265625 C0.55238645 20.79900832 0.55238645 20.79900832 0.25390625 25.703125 C0.48078125 26.21875 0.70765625 26.734375 0.94140625 27.265625 C2.59140625 26.935625 4.24140625 26.605625 5.94140625 26.265625 C5.3596578 20.9569401 5.3596578 20.9569401 2.94140625 16.265625 Z " fill="#B5B1BE" transform="translate(374.05859375,8.734375)"/>
<path d="M0 0 C0.33 1.98 0.66 3.96 1 6 C1.721875 5.62875 2.44375 5.2575 3.1875 4.875 C6.60988311 3.81025859 7.88228073 4.39660152 11 6 C11.61875 5.38125 12.2375 4.7625 12.875 4.125 C14.25 2.75 15.625 1.375 17 0 C18.06927734 0.50660156 18.06927734 0.50660156 19.16015625 1.0234375 C26.84638748 4.70964153 26.84638748 4.70964153 35 7 C36.12341797 6.52626953 36.12341797 6.52626953 37.26953125 6.04296875 C40.60253179 4.76984837 43.25658263 4.80316329 46.8125 4.875 C48.55466797 4.90207031 48.55466797 4.90207031 50.33203125 4.9296875 C51.65267578 4.96449219 51.65267578 4.96449219 53 5 C55.58464442 9.38008443 54.81479148 12.11125113 54 17 C51.8125 18.125 51.8125 18.125 49 19 C47.32459336 18.35561283 45.65816784 17.68753301 44 17 C41.99199544 17.28112064 39.98985949 17.61067967 38 18 C37.01 17.67 36.02 17.34 35 17 C35 16.34 35 15.68 35 15 C34.34 15 33.68 15 33 15 C32.67 15.99 32.34 16.98 32 18 C31.01 17.01 30.02 16.02 29 15 C28.67 15.66 28.34 16.32 28 17 C27.505 12.545 27.505 12.545 27 8 C26.34 8.66 25.68 9.32 25 10 C25.32326553 13.59679066 25.32326553 13.59679066 26 17 C24.35 17.33 22.7 17.66 21 18 C21 17.34 21 16.68 21 16 C20.34 16 19.68 16 19 16 C19.33 14.35 19.66 12.7 20 11 C19.67 11 19.34 11 19 11 C18.71125 11.969375 18.4225 12.93875 18.125 13.9375 C17 17 17 17 15 18 C15 17.34 15 16.68 15 16 C11.17490679 15.72775596 11.17490679 15.72775596 8.625 17.0625 C5.37810047 18.22210697 3.3470964 17.58210372 0 17 C-0.99 17.66 -1.98 18.32 -3 19 C-5 18.625 -5 18.625 -7 18 C-7.99 18 -8.98 18 -10 18 C-10.625 16.1875 -10.625 16.1875 -11 14 C-10.34 13.01 -9.68 12.02 -9 11 C-9.99 10.01 -10.98 9.02 -12 8 C-9.91130764 0.60924242 -7.52733537 -0.28405039 0 0 Z M20 3 C20.33 3.66 20.66 4.32 21 5 C21.33 4.34 21.66 3.68 22 3 C21.34 3 20.68 3 20 3 Z M-4 5 C-4.33 5.66 -4.66 6.32 -5 7 C-4.34 7 -3.68 7 -3 7 C-3.33 6.34 -3.66 5.68 -4 5 Z M31 7 C32 9 32 9 32 9 Z M21 8 C22 10 22 10 22 10 Z M12 10 C13 12 13 12 13 12 Z M49 10 C48.67 11.32 48.34 12.64 48 14 C48.99 13.67 49.98 13.34 51 13 C50.34 12.01 49.68 11.02 49 10 Z M6 10 C5.34 10.66 4.68 11.32 4 12 C5.32 12.99 6.64 13.98 8 15 C8.33 14.01 8.66 13.02 9 12 C8.01 11.34 7.02 10.68 6 10 Z M-7 12 C-6.67 12.66 -6.34 13.32 -6 14 C-5.67 13.34 -5.34 12.68 -5 12 C-5.66 12 -6.32 12 -7 12 Z M13 12 C13 12.66 13 13.32 13 14 C13.66 13.67 14.32 13.34 15 13 C14.34 12.67 13.68 12.34 13 12 Z M41 12 C42 14 42 14 42 14 Z M39 15 C40 17 40 17 40 17 Z M50 16 C51 18 51 18 51 18 Z " fill="#58565F" transform="translate(218,67)"/>
<path d="M0 0 C7.92 0 15.84 0 24 0 C26.50505051 6.26262626 26.50505051 6.26262626 26 10 C22.77208445 12.1519437 21.71599191 12.20086443 18 12 C18.01047363 12.71655762 18.02094727 13.43311523 18.03173828 14.17138672 C18.07321299 17.40588905 18.09929892 20.64033553 18.125 23.875 C18.14175781 25.00292969 18.15851563 26.13085938 18.17578125 27.29296875 C18.18222656 28.36933594 18.18867188 29.44570313 18.1953125 30.5546875 C18.20578613 31.54968262 18.21625977 32.54467773 18.22705078 33.56982422 C18 36 18 36 16 38 C13.28545044 38.32752234 10.74769241 38.1308425 8 38 C6.25493385 36.25493385 6.76717216 33.80960857 6.68359375 31.43359375 C6.62075195 29.7465332 6.62075195 29.7465332 6.55664062 28.02539062 C6.51732422 26.84138672 6.47800781 25.65738281 6.4375 24.4375 C6.39431641 23.24962891 6.35113281 22.06175781 6.30664062 20.83789062 C6.20016454 17.89205216 6.09815159 14.9461257 6 12 C3.69 11.34 1.38 10.68 -1 10 C-1.125 2.25 -1.125 2.25 0 0 Z " fill="#66597F" transform="translate(172,9)"/>
<path d="M0 0 C1.91015625 0.23046875 1.91015625 0.23046875 3.91015625 2.23046875 C4.13720703 4.66064453 4.13720703 4.66064453 4.10546875 7.67578125 C4.09580078 9.29033203 4.09580078 9.29033203 4.0859375 10.9375 C4.06917969 12.06542969 4.05242187 13.19335938 4.03515625 14.35546875 C4.02613281 15.49113281 4.01710938 16.62679688 4.0078125 17.796875 C3.98418723 20.60828174 3.95124638 23.41927173 3.91015625 26.23046875 C4.76480469 26.29105469 5.61945313 26.35164063 6.5 26.4140625 C7.60472656 26.49785156 8.70945312 26.58164062 9.84765625 26.66796875 C11.50087891 26.78978516 11.50087891 26.78978516 13.1875 26.9140625 C15.91015625 27.23046875 15.91015625 27.23046875 16.91015625 28.23046875 C17.04296875 30.04296875 17.04296875 30.04296875 17.03515625 32.23046875 C17.03902344 33.31328125 17.03902344 33.31328125 17.04296875 34.41796875 C16.91015625 36.23046875 16.91015625 36.23046875 15.91015625 37.23046875 C8.47616883 38.42521673 0.23126696 39.2987646 -7.08984375 37.23046875 C-7.97268272 32.76637428 -8.15586118 28.66112051 -8.00390625 24.1171875 C-7.97204727 23.13465752 -7.97204727 23.13465752 -7.93954468 22.13227844 C-7.8935935 20.75987882 -7.84469476 19.38757497 -7.79296875 18.01538086 C-7.71443276 15.90693495 -7.64760511 13.79833786 -7.58203125 11.68945312 C-7.5358477 10.35284051 -7.48899686 9.01625075 -7.44140625 7.6796875 C-7.39838379 6.46627686 -7.35536133 5.25286621 -7.31103516 4.00268555 C-6.90901351 -1.03589706 -4.54777435 0.09079041 0 0 Z " fill="#B4B0BE" transform="translate(404.08984375,8.76953125)"/>
<path d="M0 0 C0.71478516 0.14888672 1.42957031 0.29777344 2.16601562 0.45117188 C5.5837345 1.27258405 7.3328379 1.76972028 9.29296875 4.76953125 C9.6875 7.3125 9.6875 7.3125 7.6875 10.3125 C5.28546313 11.19050614 3.03162179 11.88986952 0.5625 12.5 C-0.46617187 12.75716797 -0.46617187 12.75716797 -1.515625 13.01953125 C-11.90638883 15.50857354 -22.63334792 14.15207604 -32.3125 9.3125 C-32.4375 6.9375 -32.4375 6.9375 -32.3125 4.3125 C-29.63382393 1.63382393 -26.6869089 1.11669363 -23.125 0.1875 C-22.47724609 0.00574219 -21.82949219 -0.17601562 -21.16210938 -0.36328125 C-13.70894634 -2.34384206 -7.34919845 -1.77770231 0 0 Z " fill="#B3B0BD" transform="translate(159.3125,11.6875)"/>
<path d="M0 0 C1.32 0.66 2.64 1.32 4 2 C4 2.66 4 3.32 4 4 C3.01 4 2.02 4 1 4 C0.34 6.97 -0.32 9.94 -1 13 C-1.99 13 -2.98 13 -4 13 C-4.94875 13.350625 -5.8975 13.70125 -6.875 14.0625 C-10.28590563 15.08577169 -11.61099123 14.74392875 -15 14 C-17.34165499 14.26871451 -19.67884289 14.59038404 -22 15 C-22.33 15.99 -22.66 16.98 -23 18 C-24.32 18 -25.64 18 -27 18 C-27.33 16.35 -27.66 14.7 -28 13 C-28.99 13.495 -28.99 13.495 -30 14 C-30.99 14.495 -30.99 14.495 -32 15 C-33.80733799 11.02385643 -34.43023159 7.31396079 -35 3 C-35.33 2.34 -35.66 1.68 -36 1 C-13 1 -13 1 -10.1171875 1.03515625 C-9.04726563 1.04417969 -7.97734375 1.05320312 -6.875 1.0625 C-5.79992187 1.07410156 -4.72484375 1.08570312 -3.6171875 1.09765625 C-1.0731148 1.2998644 -1.0731148 1.2998644 0 0 Z M-28 8 C-27 10 -27 10 -27 10 Z M-23 8 C-22 10 -22 10 -22 10 Z M-18 11 C-17.34 11.66 -16.68 12.32 -16 13 C-16 12.34 -16 11.68 -16 11 C-16.66 11 -17.32 11 -18 11 Z " fill="#4B4752" transform="translate(388,71)"/>
<path d="M0 0 C0.33 0.66 0.66 1.32 1 2 C1.99 1.67 2.98 1.34 4 1 C4 3.31 4 5.62 4 8 C4.99 8.33 5.98 8.66 7 9 C7.33 9.99 7.66 10.98 8 12 C8.66 12.33 9.32 12.66 10 13 C10.33 13.99 10.66 14.98 11 16 C14.3 16 17.6 16 21 16 C21.66 13.36 22.32 10.72 23 8 C23.66 8 24.32 8 25 8 C25.33 6.02 25.66 4.04 26 2 C27.32 2 28.64 2 30 2 C30 16.62047354 30 16.62047354 26.47265625 20.5703125 C21.92884229 24.98154833 17.39127803 25.32893121 11.3671875 25.30078125 C7.51881283 24.81179635 5.49922789 23.51349155 2.8125 20.75 C0.82747123 17.73823221 0.3311156 15.55949266 0 12 C-0.66 12 -1.32 12 -2 12 C-2 8.7 -2 5.4 -2 2 C-1.34 2 -0.68 2 0 2 C0 1.34 0 0.68 0 0 Z " fill="#B3B0BD" transform="translate(294,21)"/>
<path d="M0 0 C0.66 0 1.32 0 2 0 C2.66 0.99 3.32 1.98 4 3 C4.33 3 4.66 3 5 3 C5 4.98 5 6.96 5 9 C6.32 9 7.64 9 9 9 C8.89127117 15.84991601 7.57143042 19.86711002 3.08984375 25.109375 C-0.83133901 28.65676277 -4.93472492 29.93396176 -10.17578125 30.046875 C-14.43081748 29.69429196 -17.55671998 28.47485752 -21 26 C-17.81119049 24.40559525 -15.29102008 25.09213239 -12 26 C-12 25.34 -12 24.68 -12 24 C-12.99 23.67 -13.98 23.34 -15 23 C-15 22.34 -15 21.68 -15 21 C-12.51095512 19.29322637 -10.14242372 18.05299487 -7.3125 17 C-4.68136031 16.1108717 -4.68136031 16.1108717 -3 13 C-2.83286431 10.37468476 -2.83286431 10.37468476 -3 8 C-2.34 7.67 -1.68 7.34 -1 7 C-1 6.01 -1 5.02 -1 4 C-0.6937566 2.66018514 -0.36548445 1.32488113 0 0 Z " fill="#675A7C" transform="translate(227,17)"/>
<path d="M0 0 C0.66 0 1.32 0 2 0 C2.66 1.98 3.32 3.96 4 6 C0.05756163 11.21661047 -8.85011931 12.00464359 -15 13 C-22.73002737 13.46528209 -29.8409325 10.6446727 -37 8 C-37.33 6.35 -37.66 4.7 -38 3 C-33.76479901 1.81007292 -31.0099457 2.31387649 -26.8125 3.5 C-20.82717838 4.99124661 -16.03005327 5.13203602 -10 4 C-8.453125 3.7215625 -8.453125 3.7215625 -6.875 3.4375 C-6.25625 3.293125 -5.6375 3.14875 -5 3 C-5 2.34 -5 1.68 -5 1 C-3.35 1 -1.7 1 0 1 C0 0.67 0 0.34 0 0 Z " fill="#B1AEBA" transform="translate(165,33)"/>
<path d="M0 0 C2 2 2 2 2.125 5.125 C2.08375 6.07375 2.0425 7.0225 2 8 C-0.98836106 9.03762537 -3.98967829 10.02801525 -7 11 C-7.65742188 11.22429688 -8.31484375 11.44859375 -8.9921875 11.6796875 C-18.52988198 14.56869869 -28.7299184 11.8523328 -38 9 C-39 8 -39 8 -39.0625 5.4375 C-39.041875 4.633125 -39.02125 3.82875 -39 3 C-35.00979554 1.73952844 -32.32150501 2.32341969 -28.37670898 3.53808594 C-17.98103839 6.7125187 -10.18114398 5.31301306 0 2 C0 1.34 0 0.68 0 0 Z " fill="#B1AEB8" transform="translate(166,23)"/>
<path d="M0 0 C3.5 0.1875 3.5 0.1875 5.5 1.1875 C5.5 1.8475 5.5 2.5075 5.5 3.1875 C6.5725 3.331875 7.645 3.47625 8.75 3.625 C11.41662949 4.02499442 13.91399729 4.46341924 16.5 5.1875 C16.17 6.1775 15.84 7.1675 15.5 8.1875 C16.16 8.8475 16.82 9.5075 17.5 10.1875 C15.025 9.6925 15.025 9.6925 12.5 9.1875 C12.83 10.1775 13.16 11.1675 13.5 12.1875 C15.15 12.1875 16.8 12.1875 18.5 12.1875 C18.83 13.1775 19.16 14.1675 19.5 15.1875 C15.37831311 16.81700412 12.79299643 17.45014601 8.5 16.1875 C8.17 15.1975 7.84 14.2075 7.5 13.1875 C6.943125 14.1465625 6.943125 14.1465625 6.375 15.125 C3.88373641 17.86538995 2.13295562 17.96044027 -1.5 18.1875 C-2.49 17.8575 -3.48 17.5275 -4.5 17.1875 C-4.5 16.5275 -4.5 15.8675 -4.5 15.1875 C-5.16 14.8575 -5.82 14.5275 -6.5 14.1875 C-6.38617347 12.22848546 -6.25858875 10.2702662 -6.125 8.3125 C-6.05539062 7.22195312 -5.98578125 6.13140625 -5.9140625 5.0078125 C-5.28061252 0.69318153 -4.32367236 0.23162531 0 0 Z M-1.5 3.1875 C-0.5 5.1875 -0.5 5.1875 -0.5 5.1875 Z M0.5 4.1875 C-0.16 5.5075 -0.82 6.8275 -1.5 8.1875 C-0.20532323 10.24740478 -0.20532323 10.24740478 1.5 12.1875 C2.49 12.1875 3.48 12.1875 4.5 12.1875 C4.5 9.8775 4.5 7.5675 4.5 5.1875 C3.18 4.8575 1.86 4.5275 0.5 4.1875 Z M8.5 5.1875 C9.5 7.1875 9.5 7.1875 9.5 7.1875 Z M4.5 9.1875 C5.5 11.1875 5.5 11.1875 5.5 11.1875 Z " fill="#575460" transform="translate(302.5,67.8125)"/>
<path d="M0 0 C3.81164166 0 5.65489648 0.37265234 9 2 C9.33 2.66 9.66 3.32 10 4 C10.66 4 11.32 4 12 4 C12.66 3.01 13.32 2.02 14 1 C14.66 1 15.32 1 16 1 C15.67 2.65 15.34 4.3 15 6 C14.34 6 13.68 6 13 6 C14.1094072 9.48670834 15.26337666 12.77484237 17 16 C16.401875 15.835 15.80375 15.67 15.1875 15.5 C11.30017183 14.61146785 7.87180432 15.31167923 4 16 C4.57584432 13.61435923 5.22227595 11.33317216 6 9 C5.34 9 4.68 9 4 9 C3.731875 9.94875 3.46375 10.8975 3.1875 11.875 C2 15 2 15 -1 17 C-3.69599706 16.79780022 -5.42943567 16.40386739 -7.64453125 14.8359375 C-9.61741306 12.16373447 -9.29308671 10.08568813 -9.1875 6.8125 C-9.16042969 5.72582031 -9.13335937 4.63914062 -9.10546875 3.51953125 C-9.07066406 2.68808594 -9.03585938 1.85664062 -9 1 C-7.68 1.33 -6.36 1.66 -5 2 C-5 5.63 -5 9.26 -5 13 C-4.34 13 -3.68 13 -3 13 C-0.41073669 10.41073669 -0.62601957 8.97294721 -0.375 5.375 C-0.30023438 4.37210937 -0.22546875 3.36921875 -0.1484375 2.3359375 C-0.09945312 1.56507812 -0.05046875 0.79421875 0 0 Z M6 5 C7 7 7 7 7 7 Z " fill="#5C5963" transform="translate(79,68)"/>
<path d="M0 0 C0.33 1.98 0.66 3.96 1 6 C2.65 5.34 4.3 4.68 6 4 C8.35953094 6.35953094 8.49141413 7.77895617 9 11 C7.68 11.33 6.36 11.66 5 12 C5.33 12.66 5.66 13.32 6 14 C3.81968253 16.50736509 2.28958446 17.48600243 -1 18 C-1.99 18 -2.98 18 -4 18 C-5.67099977 18.31088368 -7.33871537 18.64080332 -9 19 C-10.125 16.6875 -10.125 16.6875 -11 14 C-10.34 13.01 -9.68 12.02 -9 11 C-9.99 10.01 -10.98 9.02 -12 8 C-9.91130764 0.60924242 -7.52733537 -0.28405039 0 0 Z M-4 5 C-4.33 5.66 -4.66 6.32 -5 7 C-4.34 7 -3.68 7 -3 7 C-3.33 6.34 -3.66 5.68 -4 5 Z M-7 12 C-6.67 12.66 -6.34 13.32 -6 14 C-5.67 13.34 -5.34 12.68 -5 12 C-5.66 12 -6.32 12 -7 12 Z " fill="#4A454D" transform="translate(218,67)"/>
<path d="M0 0 C0.70125 -0.02578125 1.4025 -0.0515625 2.125 -0.078125 C2.74375 0.03015625 3.3625 0.1384375 4 0.25 C6.95390027 4.68085041 6.08535451 8.62826435 5.8125 13.8125 C5.78091797 14.78380859 5.74933594 15.75511719 5.71679688 16.75585938 C5.67232422 17.68333984 5.62785156 18.61082031 5.58203125 19.56640625 C5.54311768 20.41662354 5.5042041 21.26684082 5.46411133 22.14282227 C5 24.25 5 24.25 2 26.25 C2.33 18.99 2.66 11.73 3 4.25 C1.68 4.25 0.36 4.25 -1 4.25 C-0.67 5.24 -0.34 6.23 0 7.25 C0.03759766 9.22705078 0.03759766 9.22705078 -0.0859375 11.4453125 C-0.12976562 12.24324219 -0.17359375 13.04117187 -0.21875 13.86328125 C-0.2703125 14.69214844 -0.321875 15.52101563 -0.375 16.375 C-0.41882812 17.21160156 -0.46265625 18.04820313 -0.5078125 18.91015625 C-0.87014576 25.12014576 -0.87014576 25.12014576 -2 26.25 C-1.67 27.24 -1.34 28.23 -1 29.25 C0.32 28.92 1.64 28.59 3 28.25 C3.33 29.57 3.66 30.89 4 32.25 C1.69 31.92 -0.62 31.59 -3 31.25 C-3 30.59 -3 29.93 -3 29.25 C-3.66 28.92 -4.32 28.59 -5 28.25 C-6.12342762 25.12124299 -6.11598221 22.12679762 -6.09765625 18.828125 C-6.09443359 17.80332031 -6.09121094 16.77851563 -6.08789062 15.72265625 C-6.07951172 14.65917969 -6.07113281 13.59570312 -6.0625 12.5 C-6.05798828 11.42105469 -6.05347656 10.34210937 -6.04882812 9.23046875 C-6.03705727 6.57025617 -6.02061399 3.91015635 -6 1.25 C-3.78704384 0.14352192 -2.45327301 0.05411632 0 0 Z M0 5.25 C0.66 5.25 1.32 5.25 2 5.25 C1.67 5.91 1.34 6.57 1 7.25 C0.67 6.59 0.34 5.93 0 5.25 Z " fill="#63587B" transform="translate(63,8.75)"/>
<path d="M0 0 C0.391875 0.48984375 0.78375 0.9796875 1.1875 1.484375 C3.57166612 3.47803115 4.9321685 3.34130451 8 3.25 C8.86625 3.23453125 9.7325 3.2190625 10.625 3.203125 C13.14823779 3.0807181 13.14823779 3.0807181 16 2 C16.09765625 8.15234375 16.09765625 8.15234375 16 10 C12.6178457 13.3821543 2.62255827 12.11578392 -1.9921875 12.1328125 C-4.09658947 11.99361081 -5.97390934 11.57239333 -8 11 C-8.33 9.68 -8.66 8.36 -9 7 C-8.01 6.67 -7.02 6.34 -6 6 C-5.5359375 5.0409375 -5.5359375 5.0409375 -5.0625 4.0625 C-3.7657662 1.54531085 -2.5778263 1.03113052 0 0 Z " fill="#B7B2BF" transform="translate(405,35)"/>
<path d="M0 0 C1.27445454 0.42683632 2.54445882 0.86697202 3.8125 1.3125 C4.52019531 1.55613281 5.22789062 1.79976563 5.95703125 2.05078125 C8.14472373 3.06724258 9.40896718 4.20820594 11 6 C10.4740625 6.7734375 10.4740625 6.7734375 9.9375 7.5625 C8.6384359 10.94006667 9.32782319 13.50468057 10 17 C8.35 17.33 6.7 17.66 5 18 C5 17.34 5 16.68 5 16 C4.34 16 3.68 16 3 16 C3.33 14.35 3.66 12.7 4 11 C3.67 11 3.34 11 3 11 C2.71125 11.969375 2.4225 12.93875 2.125 13.9375 C1 17 1 17 -1 18 C-1 17.34 -1 16.68 -1 16 C-4.79557881 16 -6.62902617 16.50178941 -10 18 C-10.66 17.34 -11.32 16.68 -12 16 C-11.01 15.1028125 -11.01 15.1028125 -10 14.1875 C-7.6626154 12.12498166 -7.6626154 12.12498166 -8 9 C-8 7.68 -8 6.36 -8 5 C-7.01 5.33 -6.02 5.66 -5 6 C-2.12579877 3.28395285 -2.12579877 3.28395285 0 0 Z M4 3 C4.33 3.66 4.66 4.32 5 5 C5.33 4.34 5.66 3.68 6 3 C5.34 3 4.68 3 4 3 Z M5 8 C6 10 6 10 6 10 Z M-4 10 C-3 12 -3 12 -3 12 Z M-3 12 C-3 12.66 -3 13.32 -3 14 C-2.34 13.67 -1.68 13.34 -1 13 C-1.66 12.67 -2.32 12.34 -3 12 Z " fill="#65616C" transform="translate(234,67)"/>
<path d="M0 0 C0.66 0.33 1.32 0.66 2 1 C2 1.99 2 2.98 2 4 C2.66 4 3.32 4 4 4 C4.33 5.65 4.66 7.3 5 9 C4.38125 9.226875 3.7625 9.45375 3.125 9.6875 C0.32432182 11.41733064 0.00633297 12.90912017 -1 16 C-2.52409674 20.68115428 -2.52409674 20.68115428 -4.96484375 22.31640625 C-7.76815122 23.25801624 -9.24338307 23.06023728 -12 22 C-14.86488143 18.39237153 -15.87369779 14.41857021 -17 10 C-17.33 13.96 -17.66 17.92 -18 22 C-19.65 22 -21.3 22 -23 22 C-22.67 21.34 -22.34 20.68 -22 20 C-21.34 20 -20.68 20 -20 20 C-20 14.06 -20 8.12 -20 2 C-19.01 1.67 -18.02 1.34 -17 1 C-16.73445313 1.89203125 -16.46890625 2.7840625 -16.1953125 3.703125 C-15.84210937 4.87359375 -15.48890625 6.0440625 -15.125 7.25 C-14.60292969 8.99023438 -14.60292969 8.99023438 -14.0703125 10.765625 C-13.21467611 13.35127072 -12.3062454 15.62286874 -11 18 C-7.99740483 18.33218192 -7.99740483 18.33218192 -6.3125 16.5 C-5.879375 16.005 -5.44625 15.51 -5 15 C-5.66 14.67 -6.32 14.34 -7 14 C-6.38125 13.79375 -5.7625 13.5875 -5.125 13.375 C-2.08540411 11.40820266 -1.86416062 9.45664249 -1 6 C-0.63079809 4.00630969 -0.28674418 2.00720923 0 0 Z " fill="#5D536E" transform="translate(40,24)"/>
<path d="M0 0 C0.92683594 -0.00515625 1.85367187 -0.0103125 2.80859375 -0.015625 C5.72304176 0.26548488 7.91140497 1.03752097 10.5625 2.25 C10.98612933 5.85084929 10.52964943 7.31003725 8.75 10.5625 C7.6671875 11.8928125 7.6671875 11.8928125 6.5625 13.25 C3.36851677 13.25 2.29390176 12.73985551 -0.4375 11.25 C-1.18 10.87875 -1.9225 10.5075 -2.6875 10.125 C-3.55375 9.691875 -3.55375 9.691875 -4.4375 9.25 C-5.7575 10.57 -7.0775 11.89 -8.4375 13.25 C-9.13039369 9.52569643 -9.54894596 6.03916254 -9.4375 2.25 C-6.1939127 0.32674353 -3.75076483 -0.02080868 0 0 Z M-4.4375 3.25 C-5.4275 4.735 -5.4275 4.735 -6.4375 6.25 C-5.4475 6.58 -4.4575 6.91 -3.4375 7.25 C-3.1075 6.26 -2.7775 5.27 -2.4375 4.25 C-3.0975 3.92 -3.7575 3.59 -4.4375 3.25 Z M1.5625 7.25 C2.5625 10.25 2.5625 10.25 2.5625 10.25 Z M4.5625 7.25 C5.5625 9.25 5.5625 9.25 5.5625 9.25 Z " fill="#59575D" transform="translate(282.4375,71.75)"/>
<path d="M0 0 C0.33 0.66 0.66 1.32 1 2 C0.01 3.485 0.01 3.485 -1 5 C-2.32 5 -3.64 5 -5 5 C-3.68 6.32 -2.36 7.64 -1 9 C-0.67 8.34 -0.34 7.68 0 7 C2.5 8.3125 2.5 8.3125 5 10 C5 10.99 5 11.98 5 13 C4.34 13 3.68 13 3 13 C3 13.66 3 14.32 3 15 C3.66 15.33 4.32 15.66 5 16 C3 17 3 17 -1 17 C-2.03125 17.20625 -3.0625 17.4125 -4.125 17.625 C-5.07375 17.74875 -6.0225 17.8725 -7 18 C-7.66 17.34 -8.32 16.68 -9 16 C-9.66 15.67 -10.32 15.34 -11 15 C-11.05447047 13.58376784 -11.09300508 12.16691809 -11.125 10.75 C-11.14820313 9.96109375 -11.17140625 9.1721875 -11.1953125 8.359375 C-10.97980588 5.75605504 -10.3706769 4.20858186 -9 2 C-6.00095064 -0.0683099 -3.58697577 -0.19927643 0 0 Z M-7 11 C-7 11.66 -7 12.32 -7 13 C-6.34 12.67 -5.68 12.34 -5 12 C-5.66 11.67 -6.32 11.34 -7 11 Z " fill="#605E67" transform="translate(199,68)"/>
<path d="M0 0 C0.763125 0.165 1.52625 0.33 2.3125 0.5 C5.03596236 1.09145396 5.03596236 1.09145396 8 1 C8.82791426 4.20816776 9.14234009 7.32522388 9.25 10.625 C9.27578125 11.38039063 9.3015625 12.13578125 9.328125 12.9140625 C8.92039017 15.50609104 7.98700422 16.35810704 6 18 C6 17.34 6 16.68 6 16 C4.35 15.67 2.7 15.34 1 15 C1 15.66 1 16.32 1 17 C-5.4515995 18.33901122 -5.4515995 18.33901122 -7.71875 16.9375 C-9.61798888 14.06548022 -9.2884599 11.71148339 -9.1875 8.3125 C-9.16042969 7.13300781 -9.13335937 5.95351562 -9.10546875 4.73828125 C-9.07066406 3.83464844 -9.03585938 2.93101563 -9 2 C-8.01 2 -7.02 2 -6 2 C-5.92652344 3.04800781 -5.92652344 3.04800781 -5.8515625 4.1171875 C-5.77679688 5.02726562 -5.70203125 5.93734375 -5.625 6.875 C-5.55539063 7.77992187 -5.48578125 8.68484375 -5.4140625 9.6171875 C-5.20431868 12.17941903 -5.20431868 12.17941903 -3 14 C-2.34 14 -1.68 14 -1 14 C-0.83052421 12.58366664 -0.66454493 11.16691467 -0.5 9.75 C-0.4071875 8.96109375 -0.314375 8.1721875 -0.21875 7.359375 C0.06154619 4.73109603 0.06154619 4.73109603 0 1 C0 0.67 0 0.34 0 0 Z M3 4 C3.33 5.32 3.66 6.64 4 8 C4.66 6.68 5.32 5.36 6 4 C5.01 4 4.02 4 3 4 Z M5 6 C6 10 6 10 6 10 Z M4 10 C3.67 11.65 3.34 13.3 3 15 C3.66 14.67 4.32 14.34 5 14 C4.67 12.68 4.34 11.36 4 10 Z " fill="#68656A" transform="translate(49,67)"/>
<path d="M0 0 C1.21816406 0.03480469 1.21816406 0.03480469 2.4609375 0.0703125 C3.68683594 0.09738281 3.68683594 0.09738281 4.9375 0.125 C5.87722656 0.15980469 5.87722656 0.15980469 6.8359375 0.1953125 C7.70403189 5.39704345 7.96109098 10.36510066 7.8984375 15.6328125 C7.89392578 16.36435547 7.88941406 17.09589844 7.88476562 17.84960938 C7.87311898 19.63154669 7.85518941 21.41344113 7.8359375 23.1953125 C7.5059375 23.1953125 7.1759375 23.1953125 6.8359375 23.1953125 C6.5059375 20.8853125 6.1759375 18.5753125 5.8359375 16.1953125 C3.3609375 15.2053125 3.3609375 15.2053125 0.8359375 14.1953125 C1.1659375 12.8753125 1.4959375 11.5553125 1.8359375 10.1953125 C1.1759375 10.1953125 0.5159375 10.1953125 -0.1640625 10.1953125 C-0.4940625 11.8453125 -0.8240625 13.4953125 -1.1640625 15.1953125 C-3.16882688 13.27407997 -4.09422581 11.7651394 -4.43359375 8.99609375 C-4.4747365 6.67339827 -4.50583921 4.49453763 -4.1640625 2.1953125 C-2.1640625 0.1953125 -2.1640625 0.1953125 0 0 Z " fill="#605571" transform="translate(115.1640625,8.8046875)"/>
<path d="M0 0 C1.32 0.66 2.64 1.32 4 2 C4 13.88 4 25.76 4 38 C2.02 37.67 0.04 37.34 -2 37 C-1.67 36.34 -1.34 35.68 -1 35 C-1 34.01 -1 33.02 -1 32 C-0.90375769 28.24889743 -0.76439455 24.49971347 -0.625 20.75 C-0.5940625 19.72519531 -0.563125 18.70039063 -0.53125 17.64453125 C-0.31702551 12.09611702 0.17460696 7.25357022 2 2 C1.34 2 0.68 2 0 2 C0 1.34 0 0.68 0 0 Z " fill="#5E5273" transform="translate(49,8)"/>
<path d="M0 0 C1.2039337 3.75399798 1.09877617 7.33217412 1.0625 11.25 C1.05347656 12.51328125 1.04445312 13.7765625 1.03515625 15.078125 C1.02355469 16.04234375 1.01195312 17.0065625 1 18 C1.99 17.67 2.98 17.34 4 17 C4 18.32 4 19.64 4 21 C4.66 21 5.32 21 6 21 C7.49821059 17.62902617 8 15.79557881 8 12 C8.598125 12.78375 9.19625 13.5675 9.8125 14.375 C11.91085249 17.14574323 11.91085249 17.14574323 15 19 C13.02 19.99 13.02 19.99 11 21 C11.495 21.45375 11.99 21.9075 12.5 22.375 C14 24 14 24 14 26 C10.58645642 27.10438175 9.2492433 27.10468219 5.875 25.6875 C1.33245372 23.02122283 -0.72147492 21.45095153 -2.49609375 16.359375 C-3.70925864 10.67913009 -2.81129192 5.0441287 0 0 Z " fill="#635678" transform="translate(201,17)"/>
<path d="M0 0 C4.95 0 9.9 0 15 0 C17.50505051 6.26262626 17.50505051 6.26262626 17 10 C13.77208445 12.1519437 12.71599191 12.20086443 9 12 C8.67 11.01 8.34 10.02 8 9 C7.01 9.33 6.02 9.66 5 10 C4.67 9.01 4.34 8.02 4 7 C1.99983534 5.79117904 1.99983534 5.79117904 0 5 C0.66 4.01 1.32 3.02 2 2 C1.34 1.34 0.68 0.68 0 0 Z " fill="#5B4E71" transform="translate(181,9)"/>
<path d="M0 0 C3.3 0.66 6.6 1.32 10 2 C10 3.32 10 4.64 10 6 C10.99 6.33 11.98 6.66 13 7 C12.01 7.495 12.01 7.495 11 8 C10.34786708 10.02463255 10.34786708 10.02463255 10 12 C8 11 8 11 7 10 C6.67 10.99 6.34 11.98 6 13 C5.34 12.34 4.68 11.68 4 11 C4 10.67 4 10.34 4 10 C1.36 10 -1.28 10 -4 10 C-4.33 9.01 -4.66 8.02 -5 7 C-5.33 6.34 -5.66 5.68 -6 5 C-5.195625 4.54625 -4.39125 4.0925 -3.5625 3.625 C-0.91143428 2.25274335 -0.91143428 2.25274335 0 0 Z " fill="#B5B3C2" transform="translate(306,9)"/>
<path d="M0 0 C0.80308594 -0.02578125 1.60617188 -0.0515625 2.43359375 -0.078125 C3.48740234 0.08429687 3.48740234 0.08429687 4.5625 0.25 C6.80684537 3.61651805 6.76388902 4.46596988 6.5390625 8.35546875 C6.4875 9.33837891 6.4359375 10.32128906 6.3828125 11.33398438 C6.31835938 12.35814453 6.25390625 13.38230469 6.1875 14.4375 C6.13078125 15.47326172 6.0740625 16.50902344 6.015625 17.57617188 C5.87413334 20.13481271 5.72272134 22.69247484 5.5625 25.25 C4.9025 25.25 4.2425 25.25 3.5625 25.25 C3.2325 22.28 2.9025 19.31 2.5625 16.25 C2.2325 16.25 1.9025 16.25 1.5625 16.25 C1.5625 12.95 1.5625 9.65 1.5625 6.25 C0.5725 5.92 -0.4175 5.59 -1.4375 5.25 C-2.4275 5.745 -2.4275 5.745 -3.4375 6.25 C-3.4375 9.22 -3.4375 12.19 -3.4375 15.25 C-3.7675 15.25 -4.0975 15.25 -4.4375 15.25 C-5.62643275 10.64288558 -5.76993079 5.98225005 -5.4375 1.25 C-3.84882134 -0.33867866 -2.19060484 0.04205961 0 0 Z " fill="#574E6D" transform="translate(82.4375,8.75)"/>
<path d="M0 0 C1.91015625 0.23046875 1.91015625 0.23046875 3.91015625 2.23046875 C4.05533369 5.13982455 4.09646421 7.95041475 4.03515625 10.85546875 C4.02613281 11.65726563 4.01710938 12.4590625 4.0078125 13.28515625 C3.98421848 15.26705398 3.9483469 17.24879856 3.91015625 19.23046875 C3.58015625 19.23046875 3.25015625 19.23046875 2.91015625 19.23046875 C2.58015625 14.94046875 2.25015625 10.65046875 1.91015625 6.23046875 C-1.9492335 4.88533451 -1.9492335 4.88533451 -5.08984375 6.23046875 C-5.11894138 9.48044987 -5.13667536 12.73039732 -5.15234375 15.98046875 C-5.16072266 16.90085937 -5.16910156 17.82125 -5.17773438 18.76953125 C-5.18095703 19.65898437 -5.18417969 20.5484375 -5.1875 21.46484375 C-5.19273682 22.28178711 -5.19797363 23.09873047 -5.20336914 23.94042969 C-5.16805267 26.23465254 -5.16805267 26.23465254 -4.52124023 28.40332031 C-4.08984375 30.23046875 -4.08984375 30.23046875 -5.08984375 32.23046875 C-6.07984375 31.90046875 -7.06984375 31.57046875 -8.08984375 31.23046875 C-7.97186755 26.97611796 -7.84764005 22.72201054 -7.7175293 18.46801758 C-7.67412745 17.01982635 -7.63245631 15.57158221 -7.5925293 14.12329102 C-7.53495313 12.04557316 -7.47122347 9.96812302 -7.40625 7.890625 C-7.36959229 6.63902588 -7.33293457 5.38742676 -7.29516602 4.09790039 C-6.92781224 -1.0323851 -4.64308693 0.09269321 0 0 Z " fill="#A09FA4" transform="translate(404.08984375,8.76953125)"/>
<path d="M0 0 C3.63 0 7.26 0 11 0 C10.01 3.3 9.02 6.6 8 10 C8.66 10 9.32 10 10 10 C10.33 9.34 10.66 8.68 11 8 C12.5625 9.6875 12.5625 9.6875 14 12 C13.6875 14.75 13.6875 14.75 13 17 C11.68 17 10.36 17 9 17 C8.67 15.35 8.34 13.7 8 12 C7.01 12.495 7.01 12.495 6 13 C5.01 13.495 5.01 13.495 4 14 C2.19266201 10.02385643 1.56976841 6.31396079 1 2 C0.67 1.34 0.34 0.68 0 0 Z " fill="#45414D" transform="translate(352,72)"/>
<path d="M0 0 C1.1446875 0.0928125 1.1446875 0.0928125 2.3125 0.1875 C2.6425 1.1775 2.9725 2.1675 3.3125 3.1875 C2.05029907 5.23313599 0.70962274 7.23152816 -0.6875 9.1875 C-1.38179379 10.5066582 -2.06280495 11.83399406 -2.6875 13.1875 C-5.1625 12.1975 -5.1625 12.1975 -7.6875 11.1875 C-8.0175 11.8475 -8.3475 12.5075 -8.6875 13.1875 C-9.6775 13.6825 -9.6775 13.6825 -10.6875 14.1875 C-11.3475 12.5375 -12.0075 10.8875 -12.6875 9.1875 C-11.6975 8.8575 -10.7075 8.5275 -9.6875 8.1875 C-10.0175 7.1975 -10.3475 6.2075 -10.6875 5.1875 C-9.924375 4.919375 -9.16125 4.65125 -8.375 4.375 C-5.68251525 3.39836251 -5.68251525 3.39836251 -4.1875 1.5625 C-2.6875 0.1875 -2.6875 0.1875 0 0 Z " fill="#5C5A66" transform="translate(180.6875,71.8125)"/>
<path d="M0 0 C0.598125 0.350625 1.19625 0.70125 1.8125 1.0625 C1.4825 1.7225 1.1525 2.3825 0.8125 3.0625 C1.4725 3.0625 2.1325 3.0625 2.8125 3.0625 C3.1425 2.0725 3.4725 1.0825 3.8125 0.0625 C6.8125 1.0625 6.8125 1.0625 8.8125 3.0625 C9.1425 2.4025 9.4725 1.7425 9.8125 1.0625 C10.4725 1.7225 11.1325 2.3825 11.8125 3.0625 C11.4825 3.3925 11.1525 3.7225 10.8125 4.0625 C11.8025 5.0525 12.7925 6.0425 13.8125 7.0625 C10.74292902 8.08569033 8.58809677 8.19621939 5.375 8.1875 C3.95380859 8.19136719 3.95380859 8.19136719 2.50390625 8.1953125 C0.0753453 8.0754706 -1.9114358 7.90833467 -4.1875 7.0625 C-5.5 4.625 -5.5 4.625 -6.1875 2.0625 C-4.66896708 -0.97456585 -3.05066334 -1.30742714 0 0 Z M-1.1875 2.0625 C-0.1875 4.0625 -0.1875 4.0625 -0.1875 4.0625 Z M6.8125 4.0625 C6.4825 4.7225 6.1525 5.3825 5.8125 6.0625 C6.4725 6.0625 7.1325 6.0625 7.8125 6.0625 C7.4825 5.4025 7.1525 4.7425 6.8125 4.0625 Z " fill="#58565D" transform="translate(337.1875,76.9375)"/>
<path d="M0 0 C2.3828125 -0.29296875 2.3828125 -0.29296875 5.125 -0.1875 C6.03507812 -0.16042969 6.94515625 -0.13335937 7.8828125 -0.10546875 C8.58148438 -0.07066406 9.28015625 -0.03585937 10 0 C10 0.66 10 1.32 10 2 C8.329375 2.433125 8.329375 2.433125 6.625 2.875 C2.99708908 3.69241329 2.99708908 3.69241329 1 6 C0.72095371 9.11038944 0.72095371 9.11038944 0.8046875 12.7578125 C0.80893234 13.75238968 0.80893234 13.75238968 0.81326294 14.76705933 C0.82446565 16.88655583 0.84956949 19.00563104 0.875 21.125 C0.88502972 22.56119182 0.89415559 23.99739025 0.90234375 25.43359375 C0.924405 28.95586628 0.95893506 32.47789203 1 36 C0.01 36.495 0.01 36.495 -1 37 C-3.24578046 32.50843908 -2.18584432 26.34142092 -2.18530273 21.34204102 C-2.1874881 19.07484134 -2.20564493 16.80812911 -2.22460938 14.54101562 C-2.22754362 13.10156417 -2.22952821 11.66211039 -2.23046875 10.22265625 C-2.23457764 8.91047119 -2.23868652 7.59828613 -2.24291992 6.24633789 C-2 3 -2 3 0 0 Z " fill="#ABA9AE" transform="translate(332,9)"/>
<path d="M0 0 C4.07279689 0.38422612 7.46574118 0.87944471 11 3 C10.01 4.485 10.01 4.485 9 6 C12.98393611 7.84566532 16.44376683 8.36022829 20.8125 8.625 C22.55466797 8.73714844 22.55466797 8.73714844 24.33203125 8.8515625 C25.21246094 8.90054688 26.09289062 8.94953125 27 9 C20.4845085 12.90627847 12.33530476 10.18608815 5.375 8.5 C0.15916955 7.15916955 0.15916955 7.15916955 -1 6 C-1.125 3.5 -1.125 3.5 -1 1 C-0.67 0.67 -0.34 0.34 0 0 Z " fill="#A8A6AD" transform="translate(128,25)"/>
<path d="M0 0 C2 1 2 1 2.79370117 2.90185547 C3.60069863 5.55713743 4.40492208 8.2123937 5.1875 10.875 C5.47302734 11.79925781 5.75855469 12.72351563 6.05273438 13.67578125 C6.31763672 14.56394531 6.58253906 15.45210937 6.85546875 16.3671875 C7.09934326 17.18300293 7.34321777 17.99881836 7.59448242 18.83935547 C8 21 8 21 7 24 C6.01 21.03 5.02 18.06 4 15 C2.68 15 1.36 15 0 15 C-0.33 15.66 -0.66 16.32 -1 17 C-0.01 17.33 0.98 17.66 2 18 C1.01 19.98 0.02 21.96 -1 24 C-3 21 -3 21 -4 18.375 C-4.76047262 15.84860062 -4.76047262 15.84860062 -7 15 C-6 12 -6 12 -3.9375 10.8125 C-2.9784375 10.4103125 -2.9784375 10.4103125 -2 10 C-1.34 10.66 -0.68 11.32 0 12 C0.66 11.67 1.32 11.34 2 11 C1.855625 10.484375 1.71125 9.96875 1.5625 9.4375 C0.84190099 6.31490429 0.42733561 3.17449308 0 0 Z " fill="#ADAAB5" transform="translate(382,10)"/>
<path d="M0 0 C1.0625 1.8125 1.0625 1.8125 2 4 C1.67 4.99 1.34 5.98 1 7 C1.39397335 9.63804589 1.39397335 9.63804589 2 12 C3.32 11.67 4.64 11.34 6 11 C6 10.34 6 9.68 6 9 C6.66 9 7.32 9 8 9 C8 9.99 8 10.98 8 12 C8.99 12 9.98 12 11 12 C11 12.99 11 13.98 11 15 C10.01 15.33 9.02 15.66 8 16 C8 16.66 8 17.32 8 18 C6.35 18 4.7 18 3 18 C3 17.34 3 16.68 3 16 C1.35 15.67 -0.3 15.34 -2 15 C-2.66 12.03 -3.32 9.06 -4 6 C-3.34 6 -2.68 6 -2 6 C-2.33 5.01 -2.66 4.02 -3 3 C-2.01 2.01 -1.02 1.02 0 0 Z M0 13 C1 15 1 15 1 15 Z " fill="#5F5D68" transform="translate(139,70)"/>
<path d="M0 0 C0.8146875 0.00257812 1.629375 0.00515625 2.46875 0.0078125 C3.2834375 0.00523438 4.098125 0.00265625 4.9375 0 C6.96875 0.1328125 6.96875 0.1328125 7.96875 1.1328125 C8.00938832 2.79898365 8.011471 4.46669345 7.96875 6.1328125 C6.97875 4.8128125 5.98875 3.4928125 4.96875 2.1328125 C3.31875 2.4628125 1.66875 2.7928125 -0.03125 3.1328125 C-0.19931963 7.18935022 -0.35982949 11.24611051 -0.51342773 15.30322266 C-0.56670245 16.68253569 -0.62201982 18.06177143 -0.67944336 19.44091797 C-0.7617601 21.42654082 -0.83605377 23.41249113 -0.91015625 25.3984375 C-0.9572876 26.59243164 -1.00441895 27.78642578 -1.05297852 29.01660156 C-1.03465898 31.64391186 -0.8284882 33.65251587 -0.03125 36.1328125 C-1.02125 36.1328125 -2.01125 36.1328125 -3.03125 36.1328125 C-3.05590098 31.16658901 -3.07408649 26.20040084 -3.08618164 21.23413086 C-3.0912219 19.54336934 -3.09805405 17.85261221 -3.10668945 16.16186523 C-3.11876857 13.73680543 -3.12448123 11.31180306 -3.12890625 8.88671875 C-3.13406754 8.12629776 -3.13922882 7.36587677 -3.14454651 6.58241272 C-3.14474238 4.7654868 -3.09322277 2.94868123 -3.03125 1.1328125 C-2.03125 0.1328125 -2.03125 0.1328125 0 0 Z " fill="#A3A1A9" transform="translate(259.03125,8.8671875)"/>
<path d="M0 0 C2.20650963 1.74219147 2.94435938 2.58528915 3.32470703 5.42016602 C3.30263184 6.35530029 3.28055664 7.29043457 3.2578125 8.25390625 C3.23654297 9.78241211 3.23654297 9.78241211 3.21484375 11.34179688 C3.18519531 12.40462891 3.15554687 13.46746094 3.125 14.5625 C3.08174734 16.66788684 3.04248266 18.77336059 3.0078125 20.87890625 C2.98348145 21.8129126 2.95915039 22.74691895 2.93408203 23.70922852 C2.83990484 26.0308944 2.83990484 26.0308944 4 28 C3.01 28.33 2.02 28.66 1 29 C-0.68300669 27.31699331 -0.22809077 25.17991273 -0.31640625 22.87109375 C-0.37924805 21.31938477 -0.37924805 21.31938477 -0.44335938 19.73632812 C-0.48267578 18.64771484 -0.52199219 17.55910156 -0.5625 16.4375 C-0.60568359 15.34501953 -0.64886719 14.25253906 -0.69335938 13.12695312 C-0.79982068 10.41810436 -0.90183516 7.70916008 -1 5 C-3.475 4.01 -3.475 4.01 -6 3 C-3 1 -3 1 0 0 Z " fill="#605570" transform="translate(179,16)"/>
<path d="M0 0 C4.52406514 3.57163037 6.01439861 6.67605157 6.9140625 12.37109375 C7.09989845 18.0559843 5.05957673 22.4266891 1.9375 27.0625 C1.298125 27.701875 0.65875 28.34125 0 29 C-0.66 29 -1.32 29 -2 29 C-1.38722388 26.03824877 -0.74627478 24.61941217 1 22 C1.66 22 2.32 22 3 22 C3 21.34 3 20.68 3 20 C2.34 19.67 1.68 19.34 1 19 C1.350625 18.2575 1.70125 17.515 2.0625 16.75 C3.10789479 13.68350863 2.8798413 12.99146043 2 10 C1.96111651 7.66699067 1.9551365 5.33290199 2 3 C1.01 2.67 0.02 2.34 -1 2 C-0.67 1.34 -0.34 0.68 0 0 Z " fill="#B3B0BA" transform="translate(353,14)"/>
<path d="M0 0 C2.97 0.495 2.97 0.495 6 1 C6 3.64 6 6.28 6 9 C3.50935112 9.68707555 1.62113708 10 -1 10 C-2.67099977 10.31088368 -4.33871537 10.64080332 -6 11 C-6.66 9.35 -7.32 7.7 -8 6 C-7.34 5.34 -6.68 4.68 -6 4 C-5.01 4 -4.02 4 -3 4 C-2.67 3.01 -2.34 2.02 -2 1 C-1.34 1.33 -0.68 1.66 0 2 C0 1.34 0 0.68 0 0 Z " fill="#57535D" transform="translate(215,75)"/>
<path d="M0 0 C0.99 0.33 1.98 0.66 3 1 C4 6.875 4 6.875 4 8 C6.44480079 7.81171228 6.44480079 7.81171228 9 7 C10.36020151 5.03241727 10.36020151 5.03241727 11 3 C11.33 3 11.66 3 12 3 C12.6875 5.8125 12.6875 5.8125 13 9 C11.40987251 11.21780939 10.41263289 11.90664092 7.73828125 12.51171875 C6.93777344 12.56972656 6.13726562 12.62773438 5.3125 12.6875 C4.10013672 12.78611328 4.10013672 12.78611328 2.86328125 12.88671875 C2.24839844 12.92410156 1.63351563 12.96148437 1 13 C0.87625 12.360625 0.7525 11.72125 0.625 11.0625 C0.41875 10.381875 0.2125 9.70125 0 9 C-0.66 8.67 -1.32 8.34 -2 8 C-1.34 8 -0.68 8 0 8 C0 5.36 0 2.72 0 0 Z " fill="#54535A" transform="translate(102,72)"/>
<path d="M0 0 C2.64 0 5.28 0 8 0 C9.60202296 4.20531026 10.10182249 7.51981042 10 12 C10.33 12.66 10.66 13.32 11 14 C9.1875 14.625 9.1875 14.625 7 15 C6.01 14.34 5.02 13.68 4 13 C4.33 12.2575 4.66 11.515 5 10.75 C6.22782871 7.86116688 6.22782871 7.86116688 6 4 C5.01 4.33 4.02 4.66 3 5 C2.01 4.67 1.02 4.34 0 4 C-0.33 5.65 -0.66 7.3 -1 9 C-2.0326802 6.21176345 -2.04509293 5.1322726 -1.0625 2.25 C-0.711875 1.5075 -0.36125 0.765 0 0 Z " fill="#61556D" transform="translate(94,9)"/>
<path d="M0 0 C1.84113283 2.76169925 2.5677017 4.55720895 3.4375 7.6875 C4.74443998 12.22844963 6.28769586 16.59693221 8 21 C7.01 20.67 6.02 20.34 5 20 C3.3364652 16.43369295 2.2468184 12.74045519 1 9 C0.67 12.96 0.34 16.92 0 21 C-1.65 21 -3.3 21 -5 21 C-4.67 20.34 -4.34 19.68 -4 19 C-3.34 19 -2.68 19 -2 19 C-2 13.06 -2 7.12 -2 1 C-1.34 0.67 -0.68 0.34 0 0 Z " fill="#584F65" transform="translate(22,25)"/>
<path d="M0 0 C0.99 0.33 1.98 0.66 3 1 C2.34 1 1.68 1 1 1 C1 1.66 1 2.32 1 3 C1.66 3 2.32 3 3 3 C3.33 3 3.66 3 4 3 C4.66 2.34 5.32 1.68 6 1 C6.66 1 7.32 1 8 1 C8.8125 3.1875 8.8125 3.1875 9 6 C6.875 8.875 6.875 8.875 4 11 C1.3125 11.0625 1.3125 11.0625 -1 10 C-3.09862498 7.10189884 -3 5.71621139 -3 2 C-2.01 1.34 -1.02 0.68 0 0 Z " fill="#585662" transform="translate(375,75)"/>
<path d="M0 0 C3.5 0.1875 3.5 0.1875 5.5 1.1875 C5.5 1.8475 5.5 2.5075 5.5 3.1875 C6.16 3.1875 6.82 3.1875 7.5 3.1875 C7.5 3.8475 7.5 4.5075 7.5 5.1875 C6.84 5.1875 6.18 5.1875 5.5 5.1875 C6.16 6.8375 6.82 8.4875 7.5 10.1875 C6.51 9.8575 5.52 9.5275 4.5 9.1875 C4.17 9.8475 3.84 10.5075 3.5 11.1875 C3.520625 10.40375 3.54125 9.62 3.5625 8.8125 C3.68684063 6.20635039 3.68684063 6.20635039 2.5 4.1875 C-0.62474627 5.82223516 -0.62474627 5.82223516 -1.1875 8.3125 C-1.290625 8.93125 -1.39375 9.55 -1.5 10.1875 C-2.49 9.8575 -3.48 9.5275 -4.5 9.1875 C-5.125 5.8125 -5.125 5.8125 -5.5 2.1875 C-3.5 0.1875 -3.5 0.1875 0 0 Z M-1.5 3.1875 C-0.5 5.1875 -0.5 5.1875 -0.5 5.1875 Z " fill="#56545F" transform="translate(302.5,67.8125)"/>
<path d="M0 0 C1.32 0.66 2.64 1.32 4 2 C3.67 3.32 3.34 4.64 3 6 C2.34 6 1.68 6 1 6 C0.9175 7.051875 0.835 8.10375 0.75 9.1875 C-0.29876735 14.51873401 -3.15945544 17.35148267 -7 21 C-7.66 20.01 -8.32 19.02 -9 18 C-8.67 17.34 -8.34 16.68 -8 16 C-7.34 16 -6.68 16 -6 16 C-5.87625 15.071875 -5.7525 14.14375 -5.625 13.1875 C-5 10 -5 10 -3 7 C-2.43182698 5.78285872 -1.88996248 4.55309144 -1.375 3.3125 C-0.92125 2.219375 -0.4675 1.12625 0 0 Z " fill="#56555D" transform="translate(66,66)"/>
<path d="M0 0 C-1.98 0.99 -1.98 0.99 -4 2 C-3.67 3.65 -3.34 5.3 -3 7 C-4.32 7.33 -5.64 7.66 -7 8 C-4.36 8.33 -1.72 8.66 1 9 C0.67 9.99 0.34 10.98 0 12 C-1.62566606 11.52309796 -3.25051311 11.04340334 -4.875 10.5625 C-5.77992188 10.29566406 -6.68484375 10.02882813 -7.6171875 9.75390625 C-10 9 -10 9 -12 8 C-12.125 5.625 -12.125 5.625 -12 3 C-9.84267191 0.84267191 -8.88177557 0.51705175 -6 -0.1875 C-5.29875 -0.36667969 -4.5975 -0.54585937 -3.875 -0.73046875 C-2 -1 -2 -1 0 0 Z " fill="#AAA7B3" transform="translate(139,13)"/>
<path d="M0 0 C2.33944736 0.28730055 4.6739143 0.61936779 7 1 C7.33 2.65 7.66 4.3 8 6 C9.65 6 11.3 6 13 6 C13 6.66 13 7.32 13 8 C14.65 8.33 16.3 8.66 18 9 C18 9.33 18 9.66 18 10 C11.56318772 9.48914188 6.04057576 8.27057103 0 6 C-0.38218767 4.34385343 -0.71395102 2.67542976 -1 1 C-0.67 0.67 -0.34 0.34 0 0 Z " fill="#A9A7AE" transform="translate(128,35)"/>
<path d="M0 0 C0.99 0.33 1.98 0.66 3 1 C3 12.22 3 23.44 3 35 C2.34 34.67 1.68 34.34 1 34 C0.67 22.78 0.34 11.56 0 0 Z " fill="#A5A4AB" transform="translate(283,9)"/>
<path d="M0 0 C0.70125 -0.02578125 1.4025 -0.0515625 2.125 -0.078125 C2.74375 0.03015625 3.3625 0.1384375 4 0.25 C6.95390027 4.68085041 6.08535451 8.62826435 5.8125 13.8125 C5.78091797 14.78380859 5.74933594 15.75511719 5.71679688 16.75585938 C5.67232422 17.68333984 5.62785156 18.61082031 5.58203125 19.56640625 C5.54311768 20.41662354 5.5042041 21.26684082 5.46411133 22.14282227 C5 24.25 5 24.25 2 26.25 C2.33 18 2.66 9.75 3 1.25 C-0.13384992 2.50353997 -3.03145514 3.71075452 -6 5.25 C-6 3.93 -6 2.61 -6 1.25 C-3.78704384 0.14352192 -2.45327301 0.05411632 0 0 Z " fill="#524A62" transform="translate(63,8.75)"/>
<path d="M0 0 C0.66 0 1.32 0 2 0 C2 0.99 2 1.98 2 3 C1.34 3 0.68 3 0 3 C-0.33 5.64 -0.66 8.28 -1 11 C-2.258125 10.87625 -3.51625 10.7525 -4.8125 10.625 C-5.52019531 10.55539063 -6.22789062 10.48578125 -6.95703125 10.4140625 C-9 10 -9 10 -12 8 C-12.6875 5.875 -12.6875 5.875 -13 4 C-11.35 3.67 -9.7 3.34 -8 3 C-7.01 4.485 -7.01 4.485 -6 6 C-5.34 6 -4.68 6 -4 6 C-3.67 4.68 -3.34 3.36 -3 2 C-2.01 2 -1.02 2 0 2 C0 1.34 0 0.68 0 0 Z " fill="#66636B" transform="translate(170,74)"/>
<path d="M0 0 C0.66 0.33 1.32 0.66 2 1 C1.071875 1.804375 1.071875 1.804375 0.125 2.625 C-2.2782902 5.31103023 -3.06022153 7.55414562 -4 11 C-4.66 11 -5.32 11 -6 11 C-6 14.3 -6 17.6 -6 21 C-5.34 21 -4.68 21 -4 21 C-3.28385417 22.72526042 -2.56770833 24.45052083 -1.8515625 26.17578125 C-0.93193308 28.26533932 -0.93193308 28.26533932 1 31 C-3.85198504 28.92650212 -5.97282512 25.78860208 -8 21 C-9.08351656 15.56521855 -8.55873802 11.31880615 -5.6875 6.5625 C-3.99418861 4.12677581 -2.13985002 2.05199694 0 0 Z " fill="#A5A3AA" transform="translate(298,12)"/>
<path d="M0 0 C1.875 0.25 1.875 0.25 4 1 C6.11103658 3.95545121 6.19785783 6.43855901 6 10 C5.34 10 4.68 10 4 10 C3.8453125 11.3921875 3.8453125 11.3921875 3.6875 12.8125 C3 16 3 16 1.9375 17.875 C-1.26056073 19.73193849 -4.35518997 19.17925295 -8 19 C-8 18.01 -8 17.02 -8 16 C-6.906875 15.896875 -5.81375 15.79375 -4.6875 15.6875 C-1.18104306 15.22412323 -1.18104306 15.22412323 1 13.9375 C3.08014908 9.90721115 1.23225783 4.22488397 0 0 Z " fill="#A9A6B0" transform="translate(313,19)"/>
<path d="M0 0 C0.66 0 1.32 0 2 0 C2.04898438 1.16917969 2.09796875 2.33835937 2.1484375 3.54296875 C2.22350171 5.09116804 2.29904795 6.63934401 2.375 8.1875 C2.4059375 8.95642578 2.436875 9.72535156 2.46875 10.51757812 C2.68616111 14.73897711 3.09743072 18.14072328 5 22 C5.33 22 5.66 22 6 22 C6.99 22.33 7.98 22.66 9 23 C9.33 23.99 9.66 24.98 10 26 C7.69 25.67 5.38 25.34 3 25 C3 24.34 3 23.68 3 23 C2.34 22.67 1.68 22.34 1 22 C0.03335091 19.20110283 -0.11867982 16.61517492 -0.09765625 13.671875 C-0.09282227 12.47304688 -0.09282227 12.47304688 -0.08789062 11.25 C-0.07951172 10.425 -0.07113281 9.6 -0.0625 8.75 C-0.05798828 7.90953125 -0.05347656 7.0690625 -0.04882812 6.203125 C-0.03707961 4.13538599 -0.01914522 2.06768376 0 0 Z " fill="#56506C" transform="translate(57,15)"/>
<path d="M0 0 C0.66 0 1.32 0 2 0 C2 9.9 2 19.8 2 30 C0.02 29.67 -1.96 29.34 -4 29 C-3.5155542 28.46084961 -3.0311084 27.92169922 -2.53198242 27.36621094 C-0.63893317 24.44231717 -0.57664538 22.60449872 -0.48828125 19.140625 C-0.45283203 18.02558594 -0.41738281 16.91054688 -0.38085938 15.76171875 C-0.35830078 14.60285156 -0.33574219 13.44398437 -0.3125 12.25 C-0.27833984 11.07566406 -0.24417969 9.90132812 -0.20898438 8.69140625 C-0.12654827 5.79436611 -0.05738189 2.89762702 0 0 Z " fill="#594560" transform="translate(51,16)"/>
<path d="M0 0 C1.23556641 0.01740234 1.23556641 0.01740234 2.49609375 0.03515625 C3.32238281 0.04417969 4.14867187 0.05320312 5 0.0625 C5.63808594 0.07410156 6.27617187 0.08570312 6.93359375 0.09765625 C6.93359375 1.08765625 6.93359375 2.07765625 6.93359375 3.09765625 C7.51109375 2.91203125 8.08859375 2.72640625 8.68359375 2.53515625 C11.140519 2.05742079 12.57756909 2.34036261 14.93359375 3.09765625 C13.53562483 5.89359408 11.79884386 6.04939402 8.93359375 7.09765625 C7.94359375 7.59265625 7.94359375 7.59265625 6.93359375 8.09765625 C6.93359375 7.43765625 6.93359375 6.77765625 6.93359375 6.09765625 C5.94359375 6.09765625 4.95359375 6.09765625 3.93359375 6.09765625 C2.94359375 6.09765625 1.95359375 6.09765625 0.93359375 6.09765625 C0.27359375 6.75765625 -0.38640625 7.41765625 -1.06640625 8.09765625 C-1.06640625 7.43765625 -1.06640625 6.77765625 -1.06640625 6.09765625 C-1.72640625 6.09765625 -2.38640625 6.09765625 -3.06640625 6.09765625 C-3.10912725 4.4315372 -3.10704457 2.7638274 -3.06640625 1.09765625 C-2.06640625 0.09765625 -2.06640625 0.09765625 0 0 Z " fill="#413F48" transform="translate(331.06640625,71.90234375)"/>
<path d="M0 0 C4.87124228 6.03700967 7.06413783 13.579195 9 21 C9.99 17.535 9.99 17.535 11 14 C11.66 14 12.32 14 13 14 C12.125 20.75 12.125 20.75 11 23 C9.68 23 8.36 23 7 23 C5.8226504 19.92064034 4.66002109 16.83592484 3.5 13.75 C3.16613281 12.87730469 2.83226562 12.00460938 2.48828125 11.10546875 C2.01455078 9.83896484 2.01455078 9.83896484 1.53125 8.546875 C1.23798828 7.77182617 0.94472656 6.99677734 0.64257812 6.19824219 C0 4 0 4 0 0 Z " fill="#4E465B" transform="translate(23,10)"/>
<path d="M0 0 C2.97 0.495 2.97 0.495 6 1 C5.80859375 2.890625 5.80859375 2.890625 5 5 C2.78515625 6.046875 2.78515625 6.046875 0.0625 6.75 C-0.83339844 6.99234375 -1.72929687 7.2346875 -2.65234375 7.484375 C-5 8 -5 8 -7 8 C-7.33 6.35 -7.66 4.7 -8 3 C-5.3260876 2.10869587 -2.76276177 1.52268466 0 1 C0 0.67 0 0.34 0 0 Z " fill="#B5B1BB" transform="translate(163,36)"/>
<path d="M0 0 C3.3 0 6.6 0 10 0 C9.67 0.99 9.34 1.98 9 3 C9.33 3.66 9.66 4.32 10 5 C9.01 6.485 9.01 6.485 8 8 C7.01 8 6.02 8 5 8 C4.67 9.32 4.34 10.64 4 12 C3.34 12 2.68 12 2 12 C1 9 1 9 2.4375 5.8125 C2.953125 4.884375 3.46875 3.95625 4 3 C2.68 2.67 1.36 2.34 0 2 C0 1.34 0 0.68 0 0 Z " fill="#4C4B50" transform="translate(258,72)"/>
<path d="M0 0 C0.99 1.32 1.98 2.64 3 4 C2.34 4 1.68 4 1 4 C1 5.65 1 7.3 1 9 C0.34 9 -0.32 9 -1 9 C-1.0825 10.27875 -1.165 11.5575 -1.25 12.875 C-1.390625 15.0546875 -1.390625 15.0546875 -2 17 C-4.046875 18.2578125 -4.046875 18.2578125 -6 19 C-3.25806452 3.25806452 -3.25806452 3.25806452 0 0 Z " fill="#B3B1B9" transform="translate(372,9)"/>
<path d="M0 0 C0.66 0 1.32 0 2 0 C2.33 1.65 2.66 3.3 3 5 C2.401875 4.79375 1.80375 4.5875 1.1875 4.375 C-1.28450846 3.69328085 -1.28450846 3.69328085 -4 6 C-5.66666667 6 -7.33333333 6 -9 6 C-9.66 6.66 -10.32 7.32 -11 8 C-13.1640625 8.1953125 -13.1640625 8.1953125 -15.625 8.125 C-16.44226563 8.10695313 -17.25953125 8.08890625 -18.1015625 8.0703125 C-18.72804687 8.04710937 -19.35453125 8.02390625 -20 8 C-20.33 7.34 -20.66 6.68 -21 6 C-15.72 5.01 -10.44 4.02 -5 3 C-5 2.34 -5 1.68 -5 1 C-3.35 1 -1.7 1 0 1 C0 0.67 0 0.34 0 0 Z " fill="#A8A6AC" transform="translate(165,33)"/>
<path d="M0 0 C2.31 0 4.62 0 7 0 C7.76173392 4.3164922 8.16063604 7.74433453 7 12 C6.67 11.34 6.34 10.68 6 10 C5.34 10 4.68 10 4 10 C3.690625 9.21625 3.38125 8.4325 3.0625 7.625 C2.07124962 5.07669872 2.07124962 5.07669872 1 3 C0.34 3 -0.32 3 -1 3 C-0.67 2.01 -0.34 1.02 0 0 Z " fill="#685D78" transform="translate(115,9)"/>
<path d="M0 0 C1.32 0 2.64 0 4 0 C4 0.66 4 1.32 4 2 C4.66 2.33 5.32 2.66 6 3 C5.01 3.33 4.02 3.66 3 4 C3.061875 5.11375 3.12375 6.2275 3.1875 7.375 C3.125625 8.57125 3.06375 9.7675 3 11 C2.01 11.66 1.02 12.32 0 13 C-0.12375 12.360625 -0.2475 11.72125 -0.375 11.0625 C-0.58125 10.381875 -0.7875 9.70125 -1 9 C-1.66 8.67 -2.32 8.34 -3 8 C-2.01 5.36 -1.02 2.72 0 0 Z " fill="#5F5D65" transform="translate(154,72)"/>
<path d="M0 0 C1.65 0 3.3 0 5 0 C4.34 3.3 3.68 6.6 3 10 C1.02 10.33 -0.96 10.66 -3 11 C-3.33 10.34 -3.66 9.68 -4 9 C-3.34 8.34 -2.68 7.68 -2 7 C-1.28072705 4.68234271 -0.6090107 2.34904126 0 0 Z " fill="#B7B5C3" transform="translate(365,36)"/>
<path d="M0 0 C1.98 0.99 3.96 1.98 6 3 C6 3.99 6 4.98 6 6 C5.34 6 4.68 6 4 6 C4 6.66 4 7.32 4 8 C4.66 8.33 5.32 8.66 6 9 C4 10 4 10 0 10 C-1.34164079 10.2981424 -2.67851173 10.62243192 -4 11 C-3.67 9.35 -3.34 7.7 -3 6 C-1.68 5.67 -0.36 5.34 1 5 C0.67 3.35 0.34 1.7 0 0 Z " fill="#494852" transform="translate(198,75)"/>
<path d="M0 0 C0.66 0 1.32 0 2 0 C2 3.63 2 7.26 2 11 C-4.75 12 -4.75 12 -7 12 C-6.67 11.01 -6.34 10.02 -6 9 C-5.01 8.67 -4.02 8.34 -3 8 C-2.67 6.35 -2.34 4.7 -2 3 C-1.34 3 -0.68 3 0 3 C0 2.01 0 1.02 0 0 Z " fill="#6B5A79" transform="translate(121,35)"/>
<path d="M0 0 C2.33294775 -0.04241723 4.66702567 -0.04092937 7 0 C8 1 8 1 8.09765625 4.81640625 C8.09098089 6.39846682 8.07901875 7.98051159 8.0625 9.5625 C8.05798828 10.36880859 8.05347656 11.17511719 8.04882812 12.00585938 C8.03700518 14.00393756 8.01906914 16.00197783 8 18 C7.67 18 7.34 18 7 18 C6.67 13.71 6.34 9.42 6 5 C2.14061025 3.65486576 2.14061025 3.65486576 -1 5 C-0.67 3.35 -0.34 1.7 0 0 Z " fill="#AAA9AE" transform="translate(400,10)"/>
<path d="M0 0 C1 3 1 3 0 6 C-2.8125 7.8125 -2.8125 7.8125 -6 9 C-8.375 8.1875 -8.375 8.1875 -10 7 C-10 5.35 -10 3.7 -10 2 C-8.9171875 2.3403125 -8.9171875 2.3403125 -7.8125 2.6875 C-4.24415308 3.08398299 -2.86128901 2.04377787 0 0 Z M-5 5 C-4 7 -4 7 -4 7 Z " fill="#5F5C63" transform="translate(292,74)"/>
<path d="M0 0 C1 2 1 2 2 4 C-1.34440677 4.58718592 -4.59939315 5.05863115 -8 5 C-10.625 3.0625 -10.625 3.0625 -12 1 C-8.08595092 -0.95702454 -4.11979807 -1.37326602 0 0 Z " fill="#736581" transform="translate(77,42)"/>
<path d="M0 0 C0.33 0.99 0.66 1.98 1 3 C2.65 3 4.3 3 6 3 C5.814375 3.556875 5.62875 4.11375 5.4375 4.6875 C4.92448835 7.399133 5.3359276 9.34371039 6 12 C4.35 11.67 2.7 11.34 1 11 C1 10.34 1 9.68 1 9 C0.34 8.67 -0.32 8.34 -1 8 C-0.67 5.36 -0.34 2.72 0 0 Z " fill="#66656A" transform="translate(297,74)"/>
<path d="M0 0 C0.99 0.33 1.98 0.66 3 1 C2.67 1.99 2.34 2.98 2 4 C4.475 4.99 4.475 4.99 7 6 C7 7.65 7 9.3 7 11 C5.125 10.6875 5.125 10.6875 3 10 C2.34 9.01 1.68 8.02 1 7 C0.01 7 -0.98 7 -2 7 C-1.34 4.69 -0.68 2.38 0 0 Z M3 5 C4 7 4 7 4 7 Z " fill="#514E58" transform="translate(362,74)"/>
<path d="M0 0 C1.49536133 1.19458008 1.49536133 1.19458008 3 3 C3.2487793 5.26831055 3.2487793 5.26831055 3.07421875 7.88671875 C2.99204102 9.2934082 2.99204102 9.2934082 2.90820312 10.72851562 C2.83537109 11.70498047 2.76253906 12.68144531 2.6875 13.6875 C2.62626953 14.67556641 2.56503906 15.66363281 2.50195312 16.68164062 C2.34867116 19.12236119 2.18082846 21.56119089 2 24 C1.67 24 1.34 24 1 24 C0.95101562 22.79601562 0.90203125 21.59203125 0.8515625 20.3515625 C0.77653657 18.77601802 0.70098867 17.20049834 0.625 15.625 C0.5940625 14.8309375 0.563125 14.036875 0.53125 13.21875 C0.48183579 8.63332625 0.48183579 8.63332625 -2 5 C-3.31747324 4.30251417 -4.64914193 3.63040043 -6 3 C-3 1 -3 1 0 0 Z " fill="#574E6A" transform="translate(179,16)"/>
<path d="M0 0 C2 2 2 2 2.25 4.5 C2 7 2 7 0 9 C-2.68839385 9.26991906 -5.29141936 9.08737357 -8 9 C-8 8.01 -8 7.02 -8 6 C-4.535 5.505 -4.535 5.505 -1 5 C-0.67 3.35 -0.34 1.7 0 0 Z " fill="#6B5D82" transform="translate(188,38)"/>
<path d="M0 0 C-0.33 2.64 -0.66 5.28 -1 8 C-7.70212766 6.06382979 -7.70212766 6.06382979 -10 3 C-10 2.34 -10 1.68 -10 1 C-3.375 0 -3.375 0 0 0 Z " fill="#685A7C" transform="translate(196,9)"/>
<path d="M0 0 C2 2 2 2 2.125 5.125 C2.08375 6.07375 2.0425 7.0225 2 8 C-1.13498292 9.85776765 -3.37471432 10.20140476 -7 10 C-7 9.01 -7 8.02 -7 7 C-5.865625 6.87625 -4.73125 6.7525 -3.5625 6.625 C-1.7990625 6.315625 -1.7990625 6.315625 0 6 C0.33 5.34 0.66 4.68 1 4 C-0.65 4.66 -2.3 5.32 -4 6 C-4.66 5.01 -5.32 4.02 -6 3 C-4.02 2.67 -2.04 2.34 0 2 C0 1.34 0 0.68 0 0 Z " fill="#A9A7AF" transform="translate(166,23)"/>
<path d="M0 0 C1.2039337 3.75399798 1.09877617 7.33217412 1.0625 11.25 C1.05347656 12.51328125 1.04445312 13.7765625 1.03515625 15.078125 C1.02355469 16.04234375 1.01195312 17.0065625 1 18 C0.01 18 -0.98 18 -2 18 C-3.21357445 11.04952816 -2.71975816 6.49976102 0 0 Z " fill="#4D4658" transform="translate(201,17)"/>
<path d="M0 0 C0.66 0 1.32 0 2 0 C2 1.98 2 3.96 2 6 C5.96 6.33 9.92 6.66 14 7 C11 10 11 10 8.51953125 10.29296875 C7.62621094 10.25816406 6.73289062 10.22335938 5.8125 10.1875 C4.91144531 10.16042969 4.01039063 10.13335937 3.08203125 10.10546875 C2.39496094 10.07066406 1.70789063 10.03585938 1 10 C-0.60725635 6.78548731 -0.05748185 3.56387464 0 0 Z " fill="#A8A5B0" transform="translate(406,29)"/>
<path d="M0 0 C0.33 0 0.66 0 1 0 C1 6.27 1 12.54 1 19 C-2.11359501 15.88640499 -1.96606129 12.28306551 -2 8 C-1.54521329 5.21156025 -0.83766903 2.7101057 0 0 Z " fill="#59546A" transform="translate(189,21)"/>
<path d="M0 0 C4.75 0.875 4.75 0.875 7 2 C7.625 5.0625 7.625 5.0625 8 8 C6.125 8.625 6.125 8.625 4 9 C2.01388388 7.01388388 1.08545288 5.55856751 0 3 C0 2.01 0 1.02 0 0 Z " fill="#57565D" transform="translate(323,76)"/>
<path d="M0 0 C0.99 0.33 1.98 0.66 3 1 C3 1.99 3 2.98 3 4 C2.01 4.495 2.01 4.495 1 5 C1.99 5.99 2.98 6.98 4 8 C1.36 8.99 -1.28 9.98 -4 11 C-4.33 9.68 -4.66 8.36 -5 7 C-3.5625 5.25 -3.5625 5.25 -2 4 C-2.33 3.34 -2.66 2.68 -3 2 C-2.01 2 -1.02 2 0 2 C0 1.34 0 0.68 0 0 Z " fill="#695B7D" transform="translate(222,10)"/>
<path d="M0 0 C0.33 1.65 0.66 3.3 1 5 C-1.475 4.01 -1.475 4.01 -4 3 C-4.99 4.485 -4.99 4.485 -6 6 C-7.65 5.67 -9.3 5.34 -11 5 C-8.2171527 0.82572905 -5.00061399 -1.66687133 0 0 Z M-3 5 C-2.34 5 -1.68 5 -1 5 C-1.33 5.66 -1.66 6.32 -2 7 C-2.33 6.34 -2.66 5.68 -3 5 Z " fill="#59575D" transform="translate(347,70)"/>
<path d="M0 0 C0.66 1.32 1.32 2.64 2 4 C0 6 0 6 -3.0625 6.5 C-4.5165625 6.7475 -4.5165625 6.7475 -6 7 C-6.33 7.66 -6.66 8.32 -7 9 C-8.32 7.68 -9.64 6.36 -11 5 C-10.67 4.34 -10.34 3.68 -10 3 C-7.69 3.33 -5.38 3.66 -3 4 C-2.01 2.68 -1.02 1.36 0 0 Z " fill="#5B506D" transform="translate(78,31)"/>
<path d="M0 0 C2.330374 2.330374 2.38990587 3.18710781 2.75 6.375 C2.84796875 7.14585938 2.9459375 7.91671875 3.046875 8.7109375 C2.99352601 11.31614668 2.31748852 12.78053857 1 15 C0.01 14.67 -0.98 14.34 -2 14 C-1.649375 13.443125 -1.29875 12.88625 -0.9375 12.3125 C0.23188041 9.42802833 -0.23889658 7.96830334 -1 5 C-1 2 -1 2 0 0 Z " fill="#5F5369" transform="translate(101,32)"/>
<path d="M0 0 C0.99 0.33 1.98 0.66 3 1 C3.33 3.31 3.66 5.62 4 8 C2.35 8.33 0.7 8.66 -1 9 C-1 8.34 -1 7.68 -1 7 C-1.66 7 -2.32 7 -3 7 C-1.125 1.125 -1.125 1.125 0 0 Z " fill="#57545B" transform="translate(240,76)"/>
<path d="M0 0 C2.64 0.33 5.28 0.66 8 1 C9.125 3.3125 9.125 3.3125 10 6 C9.01 7.485 9.01 7.485 8 9 C4.375 9.6875 4.375 9.6875 1 10 C3.35953094 7.64046906 4.77895617 7.50858587 8 7 C7.67 6.01 7.34 5.02 7 4 C3.48809191 2.77030122 3.48809191 2.77030122 0 2 C0 1.34 0 0.68 0 0 Z " fill="#A4A1A6" transform="translate(159,13)"/>
<path d="M0 0 C0.66 0.33 1.32 0.66 2 1 C2 1.66 2 2.32 2 3 C1.34 3 0.68 3 0 3 C0.165 3.804375 0.33 4.60875 0.5 5.4375 C1 8 1 8 1 9 C1.32380126 10.33568021 1.65657551 11.66923011 2 13 C1.01 13.33 0.02 13.66 -1 14 C-2 13 -2 13 -2.09765625 10.27734375 C-2.08605469 9.17519531 -2.07445312 8.07304688 -2.0625 6.9375 C-2.05347656 5.83277344 -2.04445313 4.72804688 -2.03515625 3.58984375 C-2.02355469 2.73519531 -2.01195312 1.88054688 -2 1 C-1.34 0.67 -0.68 0.34 0 0 Z " fill="#ABAAB3" transform="translate(277,32)"/>
<path d="M0 0 C0.99 0 1.98 0 3 0 C3.69289369 3.72430357 4.11144596 7.21083746 4 11 C2.68 10.67 1.36 10.34 0 10 C0 6.7 0 3.4 0 0 Z " fill="#5B526A" transform="translate(42,35)"/>
<path d="M0 0 C1.83832664 3.10217621 2.47446226 5.39408679 2 9 C-1.22791555 11.1519437 -2.28400809 11.20086443 -6 11 C-6 10.01 -6 9.02 -6 8 C-4.35 7.67 -2.7 7.34 -1 7 C-1 6.34 -1 5.68 -1 5 C-1.66 4.67 -2.32 4.34 -3 4 C-2.67 3.34 -2.34 2.68 -2 2 C-1.34 2 -0.68 2 0 2 C0 1.34 0 0.68 0 0 Z " fill="#544F60" transform="translate(196,10)"/>
<path d="M0 0 C0.33 0.99 0.66 1.98 1 3 C0.401875 2.835 -0.19625 2.67 -0.8125 2.5 C-4.69982817 1.61146785 -8.12819568 2.31167923 -12 3 C-11.67 1.68 -11.34 0.36 -11 -1 C-3.24 -2.49230769 -3.24 -2.49230769 0 0 Z " fill="#4D4C56" transform="translate(95,81)"/>
<path d="M0 0 C2.475 0.99 2.475 0.99 5 2 C4.67 4.64 4.34 7.28 4 10 C2.68 10.33 1.36 10.66 0 11 C0 7.37 0 3.74 0 0 Z " fill="#66626A" transform="translate(79,68)"/>
<path d="M0 0 C0.66 0 1.32 0 2 0 C1.12070257 3.51718971 0.28825508 5.68703734 -2.1875 8.375 C-5.66944984 10.38679324 -8.04248927 10.310393 -12 10 C-11.46375 9.7525 -10.9275 9.505 -10.375 9.25 C-3.83947146 5.93526558 -3.83947146 5.93526558 0 0 Z " fill="#595069" transform="translate(85,35)"/>
<path d="M0 0 C0.66 0.66 1.32 1.32 2 2 C0.45216236 7.38225362 -0.93654391 11.93654391 -5 16 C-5.66 16 -6.32 16 -7 16 C-6.38722388 13.03824877 -5.74627478 11.61941217 -4 9 C-3.34 9 -2.68 9 -2 9 C-1.34 6.03 -0.68 3.06 0 0 Z " fill="#A6A4AB" transform="translate(358,27)"/>
<path d="M0 0 C3.70066609 0.90460727 5.56497978 1.43868358 7.9375 4.5 C8.288125 5.325 8.63875 6.15 9 7 C8.67 7.66 8.34 8.32 8 9 C7.34 9 6.68 9 6 9 C5.54625 8.236875 5.0925 7.47375 4.625 6.6875 C2.99474531 3.99130956 1.60264108 2.70517864 -1 1 C-0.67 0.67 -0.34 0.34 0 0 Z M10 2 C10.33 2.99 10.66 3.98 11 5 C10.01 5.495 10.01 5.495 9 6 C9.33 4.68 9.66 3.36 10 2 Z " fill="#AAA7B3" transform="translate(343,18)"/>
<path d="M0 0 C2.475 0.99 2.475 0.99 5 2 C4.625 3.9375 4.625 3.9375 4 6 C1.3333581 7.33332095 -0.16680303 6.67102033 -3 6 C-3 4.35 -3 2.7 -3 1 C-2.01 1.33 -1.02 1.66 0 2 C0 1.34 0 0.68 0 0 Z " fill="#68606B" transform="translate(215,75)"/>
<path d="M0 0 C0.33 0.99 0.66 1.98 1 3 C1.99 3.33 2.98 3.66 4 4 C3.01 4.495 3.01 4.495 2 5 C1.34786708 7.02463255 1.34786708 7.02463255 1 9 C-1 8 -1 8 -2 7 C-2.33 7.99 -2.66 8.98 -3 10 C-3.66 9.34 -4.32 8.68 -5 8 C-5 7.34 -5 6.68 -5 6 C-4.01 6 -3.02 6 -2 6 C-1.855625 5.195625 -1.71125 4.39125 -1.5625 3.5625 C-1 1 -1 1 0 0 Z " fill="#B9B7C2" transform="translate(315,12)"/>
<path d="M0 0 C1.125 1.6875 1.125 1.6875 2 4 C1.125 6.75 1.125 6.75 0 9 C-2.52264461 7.73867769 -3.52652887 6.38561992 -5 4 C-4.67 3.01 -4.34 2.02 -4 1 C-1.9375 0.3125 -1.9375 0.3125 0 0 Z " fill="#433F47" transform="translate(211,71)"/>
<path d="M0 0 C1.65 0 3.3 0 5 0 C4.01 1.485 4.01 1.485 3 3 C3.99 3.66 4.98 4.32 6 5 C6.51171875 7.1640625 6.51171875 7.1640625 6.6875 9.625 C6.75324219 10.44226563 6.81898438 11.25953125 6.88671875 12.1015625 C6.92410156 12.72804688 6.96148437 13.35453125 7 14 C5 13 5 13 4 10 C4.33 9.01 4.66 8.02 5 7 C3.35 6.67 1.7 6.34 0 6 C0 4 0 2 0 0 Z " fill="#3D3A45" transform="translate(364,72)"/>
<path d="M0 0 C1.32 0.33 2.64 0.66 4 1 C4 3.97 4 6.94 4 10 C2.68 10.33 1.36 10.66 0 11 C0 7.37 0 3.74 0 0 Z " fill="#4E4D54" transform="translate(70,69)"/>
<path d="M0 0 C3.3 0.33 6.6 0.66 10 1 C9.67 1.99 9.34 2.98 9 4 C6.125 4.625 6.125 4.625 3 5 C2.34 4.34 1.68 3.68 1 3 C0.67 3.66 0.34 4.32 0 5 C0 3.35 0 1.7 0 0 Z " fill="#ACABB2" transform="translate(145,10)"/>
<path d="M0 0 C0.99 0.33 1.98 0.66 3 1 C3.75 3.75 3.75 3.75 4 7 C2.0625 9.375 2.0625 9.375 0 11 C0 10.34 0 9.68 0 9 C-0.66 8.67 -1.32 8.34 -2 8 C-1.34 8 -0.68 8 0 8 C0 5.36 0 2.72 0 0 Z " fill="#484750" transform="translate(102,72)"/>
<path d="M0 0 C-0.33 3.63 -0.66 7.26 -1 11 C-1.99 10.67 -2.98 10.34 -4 10 C-5.16513114 7.03421164 -5.08762121 4.15436364 -5 1 C-2 0 -2 0 0 0 Z " fill="#ACA9B1" transform="translate(376,26)"/>
<path d="M0 0 C0.66 1.32 1.32 2.64 2 4 C0.8125 5.5 0.8125 5.5 -1 7 C-3.6875 7.1875 -3.6875 7.1875 -6 7 C-6.33 5.35 -6.66 3.7 -7 2 C-6.34 1.67 -5.68 1.34 -5 1 C-4.34 1.66 -3.68 2.32 -3 3 C-2.34 3 -1.68 3 -1 3 C-0.67 2.01 -0.34 1.02 0 0 Z " fill="#57565D" transform="translate(49,78)"/>
<path d="M0 0 C2.16419412 4.32838824 2.20068706 5.49742351 1 10 C0.01 10.495 0.01 10.495 -1 11 C-1 10.34 -1 9.68 -1 9 C-1.99 8.67 -2.98 8.34 -4 8 C-2.68 5.36 -1.36 2.72 0 0 Z " fill="#5D5A61" transform="translate(56,74)"/>
<path d="M0 0 C2.125 0.9375 2.125 0.9375 4 2 C3.39816251 4.02045442 2.72693904 6.02111039 2 8 C1.01 8.495 1.01 8.495 0 9 C0 8.34 0 7.68 0 7 C-0.66 7 -1.32 7 -2 7 C-2 5 -2 3 -2 1 C-1.34 0.67 -0.68 0.34 0 0 Z " fill="#58575C" transform="translate(233,76)"/>
<path d="M0 0 C0.66 0 1.32 0 2 0 C3.66666667 5 5.33333333 10 7 15 C6.01 14.67 5.02 14.34 4 14 C2.83203125 11.6015625 2.83203125 11.6015625 1.8125 8.625 C1.29623047 7.15933594 1.29623047 7.15933594 0.76953125 5.6640625 C0 3 0 3 0 0 Z " fill="#4B4356" transform="translate(23,31)"/>
<path d="M0 0 C0.33 0 0.66 0 1 0 C1 4.29 1 8.58 1 13 C-1.97 12.505 -1.97 12.505 -5 12 C-4.2884375 11.2265625 -4.2884375 11.2265625 -3.5625 10.4375 C-1.57453282 7.3362712 -1.41016059 4.62308517 -1 1 C-0.67 0.67 -0.34 0.34 0 0 Z " fill="#564D67" transform="translate(52,33)"/>
<path d="M0 0 C0.33 0 0.66 0 1 0 C0.88487847 1.72985242 0.75744323 3.45888751 0.625 5.1875 C0.55539062 6.15042969 0.48578125 7.11335938 0.4140625 8.10546875 C-0.00215853 11.01508938 -0.79874096 13.32890774 -2 16 C-2.66 16 -3.32 16 -4 16 C-3.39891424 10.34979382 -1.92471317 5.33835539 0 0 Z " fill="#A7A6AE" transform="translate(365,29)"/>
<path d="M0 0 C-2.43800985 2.95127508 -4.29794366 3.3679416 -8 4 C-10.23408113 4.99083967 -10.23408113 4.99083967 -12 6 C-12.33 5.34 -12.66 4.68 -13 4 C-4.97080292 -1.65693431 -4.97080292 -1.65693431 0 0 Z " fill="#564C62" transform="translate(217,10)"/>
<path d="M0 0 C1.32 0.33 2.64 0.66 4 1 C3.45773019 4.79588866 1.79872437 6.47211993 -1 9 C-1.66 8.01 -2.32 7.02 -3 6 C-2.67 5.34 -2.34 4.68 -2 4 C-1.34 4 -0.68 4 0 4 C0 2.68 0 1.36 0 0 Z " fill="#4F4E59" transform="translate(60,78)"/>
<path d="M0 0 C0.66 0 1.32 0 2 0 C2.33 0.99 2.66 1.98 3 3 C1.0625 6.1875 1.0625 6.1875 -1 9 C-1.99 8.67 -2.98 8.34 -4 8 C-4 6.35 -4 4.7 -4 3 C-2.68 2.67 -1.36 2.34 0 2 C0 1.34 0 0.68 0 0 Z " fill="#4A4A4F" transform="translate(181,72)"/>
<path d="M0 0 C-0.99 0.495 -0.99 0.495 -2 1 C-2.72159424 2.64363134 -3.39351421 4.31050386 -4 6 C-5.98 5.34 -7.96 4.68 -10 4 C-9.67 3.01 -9.34 2.02 -9 1 C-6.04335481 -0.4783226 -3.25770263 -0.06032783 0 0 Z " fill="#5E585F" transform="translate(218,67)"/>
<path d="M0 0 C0.598125 0.78375 1.19625 1.5675 1.8125 2.375 C3.91085249 5.14574323 3.91085249 5.14574323 7 7 C6.34 7.66 5.68 8.32 5 9 C2.375 8.625 2.375 8.625 0 8 C-0.38063221 5.6739143 -0.71269945 3.33944736 -1 1 C-0.67 0.67 -0.34 0.34 0 0 Z " fill="#5B506B" transform="translate(209,29)"/>
<path d="M0 0 C0.66 0.33 1.32 0.66 2 1 C2 2.32 2 3.64 2 5 C1.34 5 0.68 5 0 5 C0 5.66 0 6.32 0 7 C-3 9 -3 9 -5.1875 8.625 C-5.785625 8.41875 -6.38375 8.2125 -7 8 C-6.21625 7.4225 -5.4325 6.845 -4.625 6.25 C-2.19952756 4.17102363 -1.14305583 2.90959667 0 0 Z " fill="#A8A5B0" transform="translate(349,29)"/>
<path d="M0 0 C3.03393954 3.46735947 4.9351577 7.52949826 6 12 C5.67 12.99 5.34 13.98 5 15 C3.39282229 12.58923344 2.38457485 10.71900755 1.375 8.0625 C0.98441406 7.05896484 0.98441406 7.05896484 0.5859375 6.03515625 C0 4 0 4 0 0 Z " fill="#45365E" transform="translate(23,10)"/>
<path d="M0 0 C-1.9626228 2.04795423 -3.4277307 2.94976638 -6.26953125 3.19921875 C-8.51954383 3.18858877 -10.75385562 3.12958525 -13 3 C-12 1 -12 1 -8.75 -0.1875 C-5.22790825 -0.95061988 -3.38319499 -1.0252106 0 0 Z " fill="#A9A6AF" transform="translate(351,43)"/>
<path d="M0 0 C1.485 0.99 1.485 0.99 3 2 C3.99 2 4.98 2 6 2 C5.34 3.65 4.68 5.3 4 7 C2.0625 6.6875 2.0625 6.6875 0 6 C-1 3 -1 3 0 0 Z " fill="#4C4A56" transform="translate(303,78)"/>
<path d="M0 0 C0.66 0 1.32 0 2 0 C2.625 1.8125 2.625 1.8125 3 4 C2.01 5.485 2.01 5.485 1 7 C1.30840599 9.15274948 1.30840599 9.15274948 2 11 C1.34 11 0.68 11 0 11 C-1.82941851 7.23355012 -2.23162684 5.03077875 -1 1 C-0.67 0.67 -0.34 0.34 0 0 Z " fill="#3B384A" transform="translate(356,75)"/>
<path d="M0 0 C2.64 0.33 5.28 0.66 8 1 C7.01 1.495 7.01 1.495 6 2 C5.67 2.99 5.34 3.98 5 5 C4.01 5.33 3.02 5.66 2 6 C0 3 0 3 0 0 Z " fill="#555359" transform="translate(284,72)"/>
<path d="M0 0 C0.66 0.33 1.32 0.66 2 1 C2.625 3.5625 2.625 3.5625 3 6 C1.35 6.66 -0.3 7.32 -2 8 C-1.125 2.25 -1.125 2.25 0 0 Z " fill="#5C5384" transform="translate(226,37)"/>
<path d="M0 0 C1.65 0.33 3.3 0.66 5 1 C3.84826645 3.46800047 2.95216435 5.04783565 1 7 C-1.125 6.625 -1.125 6.625 -3 6 C-3 5.34 -3 4.68 -3 4 C-2.34 3.67 -1.68 3.34 -1 3 C-0.67 2.01 -0.34 1.02 0 0 Z " fill="#695A85" transform="translate(31,36)"/>
<path d="M0 0 C0.33 0 0.66 0 1 0 C0.98839844 0.74765625 0.97679687 1.4953125 0.96484375 2.265625 C0.95582031 3.25046875 0.94679688 4.2353125 0.9375 5.25 C0.92589844 6.22453125 0.91429687 7.1990625 0.90234375 8.203125 C0.89879262 10.9318117 0.89879262 10.9318117 1.56640625 13.234375 C2 15 2 15 1 17 C0.01 16.67 -0.98 16.34 -2 16 C-1.34 10.72 -0.68 5.44 0 0 Z " fill="#A8A2AE" transform="translate(398,24)"/>
<path d="M0 0 C1.65 0.33 3.3 0.66 5 1 C4.67 2.65 4.34 4.3 4 6 C3.01 6.33 2.02 6.66 1 7 C0.34 6.67 -0.32 6.34 -1 6 C-0.67 4.02 -0.34 2.04 0 0 Z " fill="#4B4951" transform="translate(140,75)"/>
<path d="M0 0 C1.32 0.33 2.64 0.66 4 1 C4 1.66 4 2.32 4 3 C3.360625 3.474375 2.72125 3.94875 2.0625 4.4375 C-0.28372963 5.9091365 -0.28372963 5.9091365 -1 9 C-1.66 9 -2.32 9 -3 9 C-3.1875 6.6875 -3.1875 6.6875 -3 4 C-1.5 2.25 -1.5 2.25 0 1 C0 0.67 0 0.34 0 0 Z " fill="#56506A" transform="translate(211,18)"/>
<path d="M0 0 C0.99 0.33 1.98 0.66 3 1 C2.67 3.64 2.34 6.28 2 9 C1.67 8.34 1.34 7.68 1 7 C0.01 7.33 -0.98 7.66 -2 8 C-1.67 7.01 -1.34 6.02 -1 5 C-0.65179959 3.33637583 -0.31595508 1.67004829 0 0 Z " fill="#AFADBA" transform="translate(379,9)"/>
<path d="M0 0 C0.99 0.33 1.98 0.66 3 1 C3 1.66 3 2.32 3 3 C3.66 3 4.32 3 5 3 C5 3.66 5 4.32 5 5 C4.34 5 3.68 5 3 5 C3.66 6.65 4.32 8.3 5 10 C4.01 9.67 3.02 9.34 2 9 C1.67 9.66 1.34 10.32 1 11 C0.67 7.37 0.34 3.74 0 0 Z " fill="#47434A" transform="translate(305,68)"/>
<path d="M0 0 C2.31 0.66 4.62 1.32 7 2 C7 2.33 7 2.66 7 3 C6.21625 3.12375 5.4325 3.2475 4.625 3.375 C1.85942178 3.79117993 1.85942178 3.79117993 0 6 C-0.99 5.01 -1.98 4.02 -3 3 C-2.01 2.01 -1.02 1.02 0 0 Z " fill="#5F5C65" transform="translate(104,67)"/>
<path d="M0 0 C0.33 0 0.66 0 1 0 C1.33 2.31 1.66 4.62 2 7 C1.34 7 0.68 7 0 7 C-0.33 8.32 -0.66 9.64 -1 11 C-1.99 10.67 -2.98 10.34 -4 10 C-2.66666667 6.66666667 -1.33333333 3.33333333 0 0 Z " fill="#6E5E7F" transform="translate(100,36)"/>
<path d="M0 0 C1.65 0.33 3.3 0.66 5 1 C5.33 2.65 5.66 4.3 6 6 C3.97954558 5.39816251 1.97888961 4.72693904 0 4 C-0.33 3.34 -0.66 2.68 -1 2 C-0.67 1.34 -0.34 0.68 0 0 Z " fill="#555159" transform="translate(263,80)"/>
<path d="M0 0 C1.670625 0.061875 1.670625 0.061875 3.375 0.125 C3.375 0.785 3.375 1.445 3.375 2.125 C1.951875 2.24875 1.951875 2.24875 0.5 2.375 C-2.72961791 2.77574923 -2.72961791 2.77574923 -4 5.1875 C-4.20625 5.826875 -4.4125 6.46625 -4.625 7.125 C-5.25 4.75 -5.25 4.75 -5.625 2.125 C-3.625 0.125 -3.625 0.125 0 0 Z " fill="#ABA9B0" transform="translate(270.625,30.875)"/>
<path d="M0 0 C0.99 0 1.98 0 3 0 C2.609375 6.0546875 2.609375 6.0546875 2 8 C0.02 8.99 0.02 8.99 -2 10 C-1.34 6.7 -0.68 3.4 0 0 Z " fill="#ACA9B3" transform="translate(368,18)"/>
<path d="M0 0 C0.99 0.33 1.98 0.66 3 1 C3.6875 3.0625 3.6875 3.0625 4 5 C3.34 5 2.68 5 2 5 C1.34 6.32 0.68 7.64 0 9 C-1.125 7.3125 -1.125 7.3125 -2 5 C-1.125 2.25 -1.125 2.25 0 0 Z " fill="#48444F" transform="translate(281,72)"/>
<path d="M0 0 C1.65 0.33 3.3 0.66 5 1 C5 1.99 5 2.98 5 4 C2.69 4.33 0.38 4.66 -2 5 C-1.34 3.35 -0.68 1.7 0 0 Z " fill="#615966" transform="translate(143,71)"/>
<path d="M0 0 C0.33 0.66 0.66 1.32 1 2 C1.66 2.33 2.32 2.66 3 3 C1.71034824 4.37562854 0.37310707 5.70766393 -1 7 C-1.66 7 -2.32 7 -3 7 C-3.66 5.68 -4.32 4.36 -5 3 C-4.360625 2.87625 -3.72125 2.7525 -3.0625 2.625 C-2.0415625 2.315625 -2.0415625 2.315625 -1 2 C-0.67 1.34 -0.34 0.68 0 0 Z " fill="#635877" transform="translate(33,40)"/>
<path d="M0 0 C0.33 0.99 0.66 1.98 1 3 C2.32 2.67 3.64 2.34 5 2 C5.33 3.32 5.66 4.64 6 6 C3.69 5.67 1.38 5.34 -1 5 C-1 4.34 -1 3.68 -1 3 C-1.66 2.67 -2.32 2.34 -3 2 C-2.01 1.34 -1.02 0.68 0 0 Z " fill="#605376" transform="translate(61,35)"/>
<path d="M0 0 C3.375 -0.125 3.375 -0.125 7 0 C7.66 0.66 8.32 1.32 9 2 C7.9275 2.12375 6.855 2.2475 5.75 2.375 C2.62136385 2.89643936 0.66519576 3.40088254 -2 5 C-1.34 3.35 -0.68 1.7 0 0 Z " fill="#A8A5AF" transform="translate(303,18)"/>
<path d="M0 0 C1.65 0 3.3 0 5 0 C5.33 1.65 5.66 3.3 6 5 C4.35 5.66 2.7 6.32 1 7 C1.33 6.01 1.66 5.02 2 4 C1.12516085 1.83284443 1.12516085 1.83284443 0 0 Z " fill="#6B5985" transform="translate(95,13)"/>
<path d="M0 0 C5.57142857 5.14285714 5.57142857 5.14285714 6 9 C5.01 9 4.02 9 3 9 C2.67 7.02 2.34 5.04 2 3 C1.01 2.67 0.02 2.34 -1 2 C-0.67 1.34 -0.34 0.68 0 0 Z " fill="#A9A6AC" transform="translate(353,14)"/>
<path d="M0 0 C0.66 0.99 1.32 1.98 2 3 C1.01 4.98 0.02 6.96 -1 9 C-1.66 8.67 -2.32 8.34 -3 8 C-3.36923077 3.44615385 -3.36923077 3.44615385 -1.5 1.1875 C-1.005 0.795625 -0.51 0.40375 0 0 Z " fill="#554E68" transform="translate(15,10)"/>
<path d="M0 0 C2 1 2 1 2.88671875 2.9609375 C3.15097656 3.75757813 3.41523438 4.55421875 3.6875 5.375 C3.95949219 6.16648437 4.23148437 6.95796875 4.51171875 7.7734375 C5 10 5 10 4 13 C2.42445965 10.11371599 1.53723627 7.46657616 0.875 4.25 C0.70742188 3.45078125 0.53984375 2.6515625 0.3671875 1.828125 C0.24601562 1.22484375 0.12484375 0.6215625 0 0 Z " fill="#A3A2AA" transform="translate(382,10)"/>
<path d="M0 0 C0.66 0.33 1.32 0.66 2 1 C1.67 1.66 1.34 2.32 1 3 C1.99 2.67 2.98 2.34 4 2 C3.67 2.99 3.34 3.98 3 5 C2.34 4.67 1.68 4.34 1 4 C0.67 4.99 0.34 5.98 0 7 C-0.66 7 -1.32 7 -2 7 C-2.125 4.625 -2.125 4.625 -2 2 C-1.34 1.34 -0.68 0.68 0 0 Z " fill="#4A4456" transform="translate(113,9)"/>
<path d="M0 0 C1.98 0.66 3.96 1.32 6 2 C5.01 2.495 5.01 2.495 4 3 C4 3.66 4 4.32 4 5 C2.35 5.33 0.7 5.66 -1 6 C-1.33 5.34 -1.66 4.68 -2 4 C-1.0625 1.875 -1.0625 1.875 0 0 Z " fill="#555258" transform="translate(234,67)"/>
<path d="M0 0 C0.33 0 0.66 0 1 0 C1.33 1.65 1.66 3.3 2 5 C2.99 5 3.98 5 5 5 C5 5.66 5 6.32 5 7 C3.02 7.66 1.04 8.32 -1 9 C-2.60031344 5.79937313 -1.03173691 3.27728194 0 0 Z " fill="#ACA8B2" transform="translate(369,37)"/>
<path d="M0 0 C0.99 0 1.98 0 3 0 C3.99 2.31 4.98 4.62 6 7 C4.68 7.33 3.36 7.66 2 8 C1.34 5.36 0.68 2.72 0 0 Z " fill="#53495F" transform="translate(230,18)"/>
<path d="M0 0 C2.1875 0.3125 2.1875 0.3125 4 1 C4.33 2.98 4.66 4.96 5 7 C4.608125 6.525625 4.21625 6.05125 3.8125 5.5625 C1.59191626 3.64820367 -0.13375709 3.38733012 -3 3 C-1.75 1.4375 -1.75 1.4375 0 0 Z " fill="#615E65" transform="translate(268,72)"/>
<path d="M0 0 C0.66 0.33 1.32 0.66 2 1 C1.67 1.66 1.34 2.32 1 3 C1.99 3.33 2.98 3.66 4 4 C4 4.99 4 5.98 4 7 C2.35 6.67 0.7 6.34 -1 6 C-1.042721 4.33388095 -1.04063832 2.66617115 -1 1 C-0.67 0.67 -0.34 0.34 0 0 Z " fill="#9F9DA3" transform="translate(128,25)"/>
<path d="M0 0 C1.65 0 3.3 0 5 0 C4.75 1.875 4.75 1.875 4 4 C1.9375 5.25 1.9375 5.25 0 6 C0 4.02 0 2.04 0 0 Z " fill="#585664" transform="translate(77,79)"/>
<path d="M0 0 C1.37562854 1.28965176 2.70766393 2.62689293 4 4 C4 4.66 4 5.32 4 6 C2.68 6 1.36 6 0 6 C-0.66 4.35 -1.32 2.7 -2 1 C-1.34 0.67 -0.68 0.34 0 0 Z " fill="#4D4B4F" transform="translate(246,72)"/>
<path d="M0 0 C1.32 0 2.64 0 4 0 C4.33 1.98 4.66 3.96 5 6 C4.67 5.34 4.34 4.68 4 4 C3.01 4.33 2.02 4.66 1 5 C0.67 3.35 0.34 1.7 0 0 Z " fill="#514D55" transform="translate(301,68)"/>
<path d="M0 0 C1.32 0 2.64 0 4 0 C3.67 1.32 3.34 2.64 3 4 C0.69 4 -1.62 4 -4 4 C-3.67 3.34 -3.34 2.68 -3 2 C-2.01 2 -1.02 2 0 2 C0 1.34 0 0.68 0 0 Z " fill="#AFABB1" transform="translate(417,42)"/>
<path d="M0 0 C2 2 2 2 2 4 C1.34 4 0.68 4 0 4 C0 4.66 0 5.32 0 6 C-0.99 6.33 -1.98 6.66 -3 7 C-3.66 6.01 -4.32 5.02 -5 4 C-4.360625 3.71125 -3.72125 3.4225 -3.0625 3.125 C-0.84793921 2.17176549 -0.84793921 2.17176549 0 0 Z " fill="#5E5471" transform="translate(97,40)"/>
<path d="M0 0 C1.10844919 3.32534757 0.84454356 5.62182575 0 9 C-0.99 8.01 -1.98 7.02 -3 6 C-1.125 1.125 -1.125 1.125 0 0 Z " fill="#5C526C" transform="translate(38,17)"/>
<path d="M0 0 C0.99 0.66 1.98 1.32 3 2 C1.68 3.65 0.36 5.3 -1 7 C-1.66 6.34 -2.32 5.68 -3 5 C-2.01 3.35 -1.02 1.7 0 0 Z " fill="#625473" transform="translate(204,15)"/>
<path d="M0 0 C4.455 0.99 4.455 0.99 9 2 C5.1496895 4.56687367 3.41430237 3.83288724 -1 3 C-0.67 2.01 -0.34 1.02 0 0 Z " fill="#A9A8AD" transform="translate(307,9)"/>
<path d="M0 0 C0.99 0 1.98 0 3 0 C1.70191542 2.59616917 0.23343204 4.14944202 -2 6 C-4.25 5.75 -4.25 5.75 -6 5 C-4.6875 3.5 -4.6875 3.5 -3 2 C-2.01 2 -1.02 2 0 2 C0 1.34 0 0.68 0 0 Z " fill="#4A4950" transform="translate(150,83)"/>
<path d="M0 0 C0.99 0.33 1.98 0.66 3 1 C3 1.99 3 2.98 3 4 C4.65 3.34 6.3 2.68 8 2 C6 5 6 5 4 5.75 C2 6 2 6 0 5 C0 3.35 0 1.7 0 0 Z " fill="#53535D" transform="translate(85,75)"/>
<path d="M0 0 C1.32 0.66 2.64 1.32 4 2 C3.67 3.32 3.34 4.64 3 6 C1.68 6.33 0.36 6.66 -1 7 C-0.67 4.69 -0.34 2.38 0 0 Z " fill="#605E67" transform="translate(66,66)"/>
<path d="M0 0 C0.66 0.33 1.32 0.66 2 1 C2.33 1.99 2.66 2.98 3 4 C3.66 4.33 4.32 4.66 5 5 C4.34 5 3.68 5 3 5 C2.67 5.99 2.34 6.98 2 8 C2 6.68 2 5.36 2 4 C0.68 3.67 -0.64 3.34 -2 3 C-1.34 2.01 -0.68 1.02 0 0 Z " fill="#BAB6BF" transform="translate(130,25)"/>
<path d="M0 0 C0.66 0.99 1.32 1.98 2 3 C1 6 1 6 -2 8 C-2 5.69 -2 3.38 -2 1 C-1.34 0.67 -0.68 0.34 0 0 Z " fill="#524663" transform="translate(22,25)"/>
<path d="M0 0 C1.32 0 2.64 0 4 0 C4.33 1.32 4.66 2.64 5 4 C3.02 4.99 3.02 4.99 1 6 C1.33 4.68 1.66 3.36 2 2 C1.34 2 0.68 2 0 2 C0 1.34 0 0.68 0 0 Z " fill="#5A5265" transform="translate(118,9)"/>
<path d="M0 0 C1.32 0 2.64 0 4 0 C4 1.32 4 2.64 4 4 C2.35 4.33 0.7 4.66 -1 5 C-0.67 3.35 -0.34 1.7 0 0 Z " fill="#57556B" transform="translate(172,9)"/>
<path d="M0 0 C2.31 0.66 4.62 1.32 7 2 C7 2.66 7 3.32 7 4 C5.1875 4.6875 5.1875 4.6875 3 5 C1.25 3.6875 1.25 3.6875 0 2 C0 1.34 0 0.68 0 0 Z " fill="#AEACB6" transform="translate(343,9)"/>
<path d="M0 0 C1.98 0 3.96 0 6 0 C6 0.99 6 1.98 6 3 C4.68 3.33 3.36 3.66 2 4 C1.34 2.68 0.68 1.36 0 0 Z " fill="#BCBBC2" transform="translate(373,9)"/>
<path d="M0 0 C0.66 0.66 1.32 1.32 2 2 C0 5 0 5 -2 6 C-2.66 4.35 -3.32 2.7 -4 1 C-2.125 0.375 -2.125 0.375 0 0 Z " fill="#535258" transform="translate(172,80)"/>
<path d="M0 0 C1.32 0.66 2.64 1.32 4 2 C3.67 3.65 3.34 5.3 3 7 C2.01 6.67 1.02 6.34 0 6 C-0.75 4.0625 -0.75 4.0625 -1 2 C-0.67 1.34 -0.34 0.68 0 0 Z " fill="#65616F" transform="translate(208,79)"/>
<path d="M0 0 C0.33 0.99 0.66 1.98 1 3 C-0.65 3.66 -2.3 4.32 -4 5 C-4.66 4.34 -5.32 3.68 -6 3 C-3 1 -3 1 0 0 Z " fill="#5F5D64" transform="translate(228,80)"/>
<path d="M0 0 C0.66 0 1.32 0 2 0 C2.66 2.31 3.32 4.62 4 7 C2.68 7.33 1.36 7.66 0 8 C0 5.36 0 2.72 0 0 Z " fill="#4B4A52" transform="translate(188,74)"/>
<path d="M0 0 C0.33 0 0.66 0 1 0 C1 2.64 1 5.28 1 8 C0.01 8.33 -0.98 8.66 -2 9 C-2 7.02 -2 5.04 -2 3 C-1.34 3 -0.68 3 0 3 C0 2.01 0 1.02 0 0 Z " fill="#595167" transform="translate(113,32)"/>
<path d="M0 0 C0.33 1.32 0.66 2.64 1 4 C1.66 4 2.32 4 3 4 C2.814375 4.78375 2.62875 5.5675 2.4375 6.375 C1.74037734 8.97089775 1.74037734 8.97089775 3 11 C2.01 10.67 1.02 10.34 0 10 C0 6.7 0 3.4 0 0 Z " fill="#625674" transform="translate(207,23)"/>
<path d="M0 0 C2.25 0.25 2.25 0.25 4 1 C2.02 2.32 0.04 3.64 -2 5 C-2.66 4.67 -3.32 4.34 -4 4 C-2.25 1.9375 -2.25 1.9375 0 0 Z " fill="#ACABB3" transform="translate(302,10)"/>
<path d="M0 0 C1.65 0.33 3.3 0.66 5 1 C3 4 3 4 0.875 4.6875 C0.25625 4.790625 -0.3625 4.89375 -1 5 C-0.67 3.35 -0.34 1.7 0 0 Z " fill="#575362" transform="translate(78,9)"/>
<path d="M0 0 C0.66 0 1.32 0 2 0 C2.33 1.98 2.66 3.96 3 6 C2.01 6.495 2.01 6.495 1 7 C-0.0625 4.625 -0.0625 4.625 -1 2 C-0.67 1.34 -0.34 0.68 0 0 Z " fill="#56545A" transform="translate(332,77)"/>
<path d="M0 0 C0.33 0 0.66 0 1 0 C1.33 1.98 1.66 3.96 2 6 C1.01 6.66 0.02 7.32 -1 8 C-1.625 5.6875 -1.625 5.6875 -2 3 C-1.34 2.01 -0.68 1.02 0 0 Z " fill="#46444F" transform="translate(113,75)"/>
<path d="M0 0 C2.31 0 4.62 0 7 0 C6.67 0.66 6.34 1.32 6 2 C5.34 2 4.68 2 4 2 C4 2.66 4 3.32 4 4 C3.34 4 2.68 4 2 4 C2 3.34 2 2.68 2 2 C1.34 2 0.68 2 0 2 C0 1.34 0 0.68 0 0 Z " fill="#4F4D5C" transform="translate(254,76)"/>
<path d="M0 0 C-3.4352048 2.29013653 -4.985331 2.17842973 -9 2 C-8.67 1.01 -8.34 0.02 -8 -1 C-4.71293093 -2.47351372 -2.99288606 -1.8171094 0 0 Z " fill="#72697A" transform="translate(123,45)"/>
<path d="M0 0 C-0.33 0.99 -0.66 1.98 -1 3 C-1.66 2.67 -2.32 2.34 -3 2 C-3.33 2.66 -3.66 3.32 -4 4 C-5.32 3.67 -6.64 3.34 -8 3 C-7 1 -7 1 -5.125 0.375 C-3 0 -3 0 0 0 Z " fill="#B8B4BF" transform="translate(167,27)"/>
<path d="M0 0 C0.99 1.32 1.98 2.64 3 4 C1.02 4.99 1.02 4.99 -1 6 C-1.66 5.01 -2.32 4.02 -3 3 C-2.01 2.01 -1.02 1.02 0 0 Z " fill="#B5B2BD" transform="translate(139,27)"/>
<path d="M0 0 C0.99 0 1.98 0 3 0 C3.66 2.31 4.32 4.62 5 7 C4.01 7.495 4.01 7.495 3 8 C2.566875 6.824375 2.566875 6.824375 2.125 5.625 C1.15087746 2.90328368 1.15087746 2.90328368 -1 1 C-0.67 0.67 -0.34 0.34 0 0 Z " fill="#A5A3A9" transform="translate(376,23)"/>
<path d="M0 0 C2.64 0.33 5.28 0.66 8 1 C8 1.66 8 2.32 8 3 C5.36 2.67 2.72 2.34 0 2 C0 1.34 0 0.68 0 0 Z " fill="#AAAAB0" transform="translate(159,13)"/>
<path d="M0 0 C0.66 0.33 1.32 0.66 2 1 C1.75 2.875 1.75 2.875 1 5 C-1.0625 6.25 -1.0625 6.25 -3 7 C-2.625 4.0625 -2.625 4.0625 -2 1 C-1.34 0.67 -0.68 0.34 0 0 Z " fill="#524C5E" transform="translate(41,9)"/>
<path d="M0 0 C0.66 1.32 1.32 2.64 2 4 C1.34 4 0.68 4 0 4 C0 2.68 0 1.36 0 0 Z " fill="#57575E" transform="translate(244,75)"/>
<path d="M0 0 C0.99 0.33 1.98 0.66 3 1 C2.01 1.33 1.02 1.66 0 2 C0 1.34 0 0.68 0 0 Z " fill="#69696B" transform="translate(318,85)"/>
<path d="M0 0 C1 4 1 4 1 4 Z " fill="#757575" transform="translate(48,74)"/>
<path d="M0 0 C0.33 0.66 0.66 1.32 1 2 C0.34 1.67 -0.32 1.34 -1 1 C-0.67 0.67 -0.34 0.34 0 0 Z " fill="#595959" transform="translate(322,83)"/>
<path d="M0 0 C0.33 0.66 0.66 1.32 1 2 C0.34 1.67 -0.32 1.34 -1 1 C-0.67 0.67 -0.34 0.34 0 0 Z " fill="#555566" transform="translate(310,81)"/>
<path d="M0 0 C0.66 0 1.32 0 2 0 C1.67 0.66 1.34 1.32 1 2 C0.67 1.34 0.34 0.68 0 0 Z " fill="#151515" transform="translate(67,76)"/>
<path d="M0 0 C0.66 0.66 1.32 1.32 2 2 C1.34 2 0.68 2 0 2 C0 1.34 0 0.68 0 0 Z " fill="#5B5B5B" transform="translate(196,73)"/>
<path d="M0 0 C0.99 0.495 0.99 0.495 2 1 C1.01 1.495 1.01 1.495 0 2 C0 1.34 0 0.68 0 0 Z " fill="#6F6F6F" transform="translate(141,70)"/>
<path d="M0 0 C3 1 3 1 3 1 Z " fill="#BEBEBE" transform="translate(133,34)"/>
<path d="M0 0 C2 1 2 1 2 1 Z " fill="#202020" transform="translate(366,86)"/>
<path d="M0 0 C2 1 2 1 2 1 Z " fill="#2A2A2A" transform="translate(383,85)"/>
<path d="" fill="#373737" transform="translate(0,0)"/>
<path d="M0 0 C2 1 2 1 2 1 Z " fill="#2A2A2A" transform="translate(335,85)"/>
<path d="" fill="#808080" transform="translate(0,0)"/>
<path d="M0 0 C2 1 2 1 2 1 Z " fill="#494955" transform="translate(222,85)"/>
<path d="M0 0 C2 1 2 1 2 1 Z " fill="#444444" transform="translate(107,85)"/>
<path d="" fill="#555555" transform="translate(0,0)"/>
<path d="" fill="#6A6A6A" transform="translate(0,0)"/>
<path d="M0 0 C2 1 2 1 2 1 Z " fill="#43435E" transform="translate(125,84)"/>
<path d="" fill="#2A2A2A" transform="translate(0,0)"/>
<path d="" fill="#000000" transform="translate(0,0)"/>
<path d="M0 0 C2 1 2 1 2 1 Z " fill="#6A6A6A" transform="translate(279,82)"/>
<path d="M0 0 C2 1 2 1 2 1 Z " fill="#515151" transform="translate(114,82)"/>
<path d="M0 0 C2 1 2 1 2 1 Z " fill="#515151" transform="translate(244,80)"/>
<path d="" fill="#404040" transform="translate(0,0)"/>
<path d="" fill="#514C57" transform="translate(0,0)"/>
<path d="" fill="#5D515D" transform="translate(0,0)"/>
<path d="M0 0 C2 1 2 1 2 1 Z " fill="#636363" transform="translate(272,72)"/>
<path d="" fill="#602020" transform="translate(0,0)"/>
<path d="M0 0 C2 1 2 1 2 1 Z " fill="#404040" transform="translate(54,67)"/>
<path d="" fill="#000000" transform="translate(0,0)"/>
<path d="" fill="#39394F" transform="translate(0,0)"/>
<path d="" fill="#494949" transform="translate(0,0)"/>
<path d="" fill="#404040" transform="translate(0,0)"/>
<path d="" fill="#555555" transform="translate(0,0)"/>
<path d="" fill="#404040" transform="translate(0,0)"/>
<path d="" fill="#000000" transform="translate(0,0)"/>
<path d="" fill="#494949" transform="translate(0,0)"/>
<path d="" fill="#494949" transform="translate(0,0)"/>
<path d="" fill="#808080" transform="translate(0,0)"/>
<path d="" fill="#000000" transform="translate(0,0)"/>
<path d="" fill="#000000" transform="translate(0,0)"/>
<path d="" fill="#555555" transform="translate(0,0)"/>
<path d="" fill="#666666" transform="translate(0,0)"/>
<path d="" fill="#404040" transform="translate(0,0)"/>
<path d="" fill="#404060" transform="translate(0,0)"/>
<path d="" fill="#555555" transform="translate(0,0)"/>
<path d="" fill="#555555" transform="translate(0,0)"/>
<path d="" fill="#595959" transform="translate(0,0)"/>
<path d="" fill="#808080" transform="translate(0,0)"/>
<path d="" fill="#404040" transform="translate(0,0)"/>
<path d="" fill="#4E4E4E" transform="translate(0,0)"/>
<path d="" fill="#000000" transform="translate(0,0)"/>
<path d="" fill="#555555" transform="translate(0,0)"/>
<path d="" fill="#000000" transform="translate(0,0)"/>
<path d="" fill="#666666" transform="translate(0,0)"/>
<path d="" fill="#808080" transform="translate(0,0)"/>
<path d="" fill="#49496D" transform="translate(0,0)"/>
<path d="" fill="#5D5D68" transform="translate(0,0)"/>
<path d="" fill="#555555" transform="translate(0,0)"/>
<path d="" fill="#404040" transform="translate(0,0)"/>
<path d="" fill="#000000" transform="translate(0,0)"/>
<path d="" fill="#555555" transform="translate(0,0)"/>
<path d="" fill="#000000" transform="translate(0,0)"/>
<path d="" fill="#626262" transform="translate(0,0)"/>
<path d="" fill="#606060" transform="translate(0,0)"/>
<path d="" fill="#000000" transform="translate(0,0)"/>
<path d="" fill="#606060" transform="translate(0,0)"/>
<path d="" fill="#5B5B5B" transform="translate(0,0)"/>
<path d="" fill="#606060" transform="translate(0,0)"/>
<path d="" fill="#555555" transform="translate(0,0)"/>
<path d="" fill="#000000" transform="translate(0,0)"/>
<path d="" fill="#555555" transform="translate(0,0)"/>
<path d="" fill="#5B5B5B" transform="translate(0,0)"/>
<path d="" fill="#808080" transform="translate(0,0)"/>
<path d="" fill="#000000" transform="translate(0,0)"/>
<path d="" fill="#555563" transform="translate(0,0)"/>
<path d="" fill="#808080" transform="translate(0,0)"/>
<path d="" fill="#4E3B4E" transform="translate(0,0)"/>
<path d="" fill="#494949" transform="translate(0,0)"/>
<path d="" fill="#555555" transform="translate(0,0)"/>
<path d="" fill="#666666" transform="translate(0,0)"/>
<path d="" fill="#4E4E58" transform="translate(0,0)"/>
<path d="" fill="#000000" transform="translate(0,0)"/>
<path d="" fill="#604060" transform="translate(0,0)"/>
<path d="" fill="#404040" transform="translate(0,0)"/>
<path d="" fill="#4D4D59" transform="translate(0,0)"/>
<path d="" fill="#404040" transform="translate(0,0)"/>
<path d="" fill="#4E4E4E" transform="translate(0,0)"/>
<path d="" fill="#555555" transform="translate(0,0)"/>
<path d="" fill="#5C5C63" transform="translate(0,0)"/>
<path d="" fill="#555555" transform="translate(0,0)"/>
<path d="" fill="#000000" transform="translate(0,0)"/>
<path d="" fill="#404040" transform="translate(0,0)"/>
<path d="" fill="#403540" transform="translate(0,0)"/>
<path d="" fill="#606060" transform="translate(0,0)"/>
<path d="" fill="#5A4B5A" transform="translate(0,0)"/>
<path d="" fill="#555555" transform="translate(0,0)"/>
<path d="" fill="#000000" transform="translate(0,0)"/>
<path d="" fill="#404040" transform="translate(0,0)"/>
<path d="" fill="#808080" transform="translate(0,0)"/>
<path d="" fill="#555555" transform="translate(0,0)"/>
<path d="" fill="#666666" transform="translate(0,0)"/>
<path d="" fill="#494949" transform="translate(0,0)"/>
<path d="" fill="#808080" transform="translate(0,0)"/>
<path d="" fill="#808080" transform="translate(0,0)"/>
<path d="" fill="#333333" transform="translate(0,0)"/>
<path d="" fill="#555555" transform="translate(0,0)"/>
<path d="" fill="#4B4B4B" transform="translate(0,0)"/>
<path d="" fill="#404040" transform="translate(0,0)"/>
<path d="" fill="#000000" transform="translate(0,0)"/>
<path d="" fill="#555555" transform="translate(0,0)"/>
<path d="" fill="#666666" transform="translate(0,0)"/>
<path d="" fill="#FFFFFF" transform="translate(0,0)"/>
</svg>
